<svg xmlns="http://www.w3.org/2000/svg" xml:space="preserve" width="2539" height="1658" style="shape-rendering:geometricPrecision;text-rendering:geometricPrecision;image-rendering:optimizeQuality;fill-rule:evenodd;clip-rule:evenodd" viewBox="0 0 2539 1658.03"><defs><style>.str0{stroke:#1f1a17;stroke-width:11.9983;stroke-linejoin:round}.fil0{fill:#fff}</style></defs><g id="Layer_x0020_1"><g id="_232737584"><path id="MX-AGU" class="fil0 str0" d="m1251.66 1019.74-7.31-7.07-.22-3.78 3.87-8.964 10.41-14.342 2.9-10.123 3.35-2.281 5.59-1.187 10.84-6.156 3.78-2.875 1.22-3.937 2.28-.53 2.41 4.342 4.15 4.188 13.88 8.217 1.84 7.624 3.56 6.374.81 1.844-.75 4.999 6.13 6.687-13.37 6.15-7.97 11.1-2.25 1.56-9.44 3.25-3.94.19-6.77-3.19-5.44-4.41-13.15-1.18z"/><path id="MX-BCN" class="fil0 str0" d="M364.163 482.501h-2.03l-2.375.376.406 1.374-2.562 1.281-2.125.031-2.343 2.687-.905-2.312.594-2.438 9.623-11.748 1.937-.469.187 3.03-2.5 2.375-.062 1.625 2.155 4.188zm-85.456-37.463 1.75 1.407 2.343 8.936-.78 3.187 1.187 7.562-2.125 2.812.125 6.53-1.936-.594-1.688 1.031-2.031-.968-1.875-4.437-1.813-.562-3.125 1.875-1.156-.469.218-2.437 8.53-9.468.47-2.124-1.814-5.03 1.593-5.907 2.127-1.344zm181.661-26.745 2.563.562 8.374 7.092-1.688 1.47-1.875-3-5.28-2.969-2.094-3.155zm26.433-4.687 1.063 1.999-.843 3.187-3.625.125-1.093-4.874 4.498-.437zM40.43 372.768l-2 4.125.47 3.218 4.093 3.75.719 9.06-2.094 6.5-2.343.718-1.75-4.592.657-2.875-1.75-1.156-.219-4.999-3.876-3.875 1.094-3.125-.906-3 2.312-1.936 2.5.125 3.093-1.938zm368.01-32.152-.063 1.5 3.436-1.5.063 1 2.906.813 3.968 5.124 2.405 1.218 3.313 6.905-1.844 2.687.376 3.656 5.749 2.593 9.061-.562 1.063.938-.532 13.529 1.937 5.342 3.75 1.156-1.063 5.937-9.25-6.53-5.374-7.562-7.998-5.686-3-5.874-4.28-.813-.75-3.406-6.375-7.717-.5-2.687 2.406-5.843-.657-3.062 1.252-1.156zm-67.335-39.15 2 2.53-1.407.437-1.063-1.125.47-1.842zM310.109 73.218l-2.656 1.593-1.469-1.25-4.186.031-1.876 6.405-1.469 1.5-.156 4.187-5.655 7.592 4.374 6.217-1.937 5.718.906 3.562-1.312 8.342.75 3.062-1.875 3.063 3 2.968 2.874.407 11.935 8.624-1.469 5.437 2.875 12.498-3.5 4.562-2.312 7.53-.25 11.03-2.656 9.873.938 2.031-.78 6.937 1.936 6.905 4.28 3.937-1.624 2.062-.063 2.031 8.874 5.749 1.843 11.03-.25 16.279 5.374 12.623.063 6.905-1.094 4.062.657 2.563-1.625 6.092 1.156 1.031-2.031 6.75 3.125 6.435 1.936 1.187 5.405 12.498 3.843 1.906.938 2.812 3 .469 1.999 2.78-.063 5.687 1.407 2.937 2.562 1 1.375 2.25 3.656.375 1.063-2.686 5.655 2.437 3.78 4.812.969-.187 3 3.686 2.936 1.5 2.125 3.531 5.061 2.594 6.53 7.31 4.75 2.594.344 1.906 4.5 2.156 6.186 7.718 4.5 3.656.937 2.75-2.28 2.655.03 1.5 6.5 7.968 2.467 5.124-1.812 3.624 1.406 5.124-1.03.78 2.53 5.28 2.563.313 1.655-2.187-1.281-1.186 1.312-1.937 1.5.843 1.469-1.125 1.281 2.5 1.875-.376-.125 1.281 1.407.376.375 6.53 1.22 2.97 3.436-.094 4.093-3.25 3.375 1.937 4.468 14.092 2.406 2.562 1.843 11.03 8.061 4.562 7.625-1.843 1.5 1.125.218 2.28 2.53-.468.344 1.875-1.125 1.5.78 2.062-1.843 8.123 6.155 8.749-1.47 6.343 1.938 4.53-1.22 3.874 2.907 1.781.843 3.093-.937 7.78-2-5.343-2.718-.812-99.016-.344.719-1.655-1.094-1.53-.156-4.126 2.687 3.78 2.468-4.343-5.03-1.281-1.094-5.375 4.75-9.342-1.313-3-2.749 1.656-1.593-1.53 4-9.093 2.031-9.873-3.968-6.843-4.875-1.968-.218-6.343-1.375-1.344-6.874-.313.03-2.53-1.406-1.626-4.812-2.686.376-1.844-1.438-3.656-2.749-1.469-1.75-5.843-1.437-.219-.72-1.875-2.999-2.28-3.03-.219-.532 1.031-1.625-3.406-2.124-1.374-.72.937-1.687-8.499-2-3.28-3.312-1.47-1.999 1.063-2.5-3.062-.78-4.218-3.625-1.718-.375-1.156-1.407.093-10.717-13.154-9.092-4.688-9.56-1.249-4.844-7.843-7.53-3.686-2.374-.094-6.25-5.999-3.718.78-6.25-6.779-2.78-.313-5.872-4.872.78-7.875-1.03-4.687-3.562-5.061-4.906-1.813 1.937-11.155-1.688-3.75.063-13.092-4.562-7.967-6.436-3.875.594-4.374-2.563-2.406-.72 1.25 1.563 2.937-1.562 1.093-1.437-2.187-1.655.001 1.813 4.187-.968.313-3.313-6.406 1.781-16.622-1.969-11.093-1.655-3.28-1.876-.25-4.499-3.938-1.656.03-7.186-9.435-4.843.625-.78-1.438 2.312-16.497-4.311-8.467-6.531-6.875-5.78-9.81-4.031-3-2.125.25-.562-3.125-3.968-2.874-.843-2.25-1.281.25-.376-1.812 3.188-1.625-1.375-2.812 1.47-3.875-3.657-5.03-1.031.437-2.656-3.125 1.407-.313 4.998 2.781 3.281-3 .594-8.06-1.25-1.907-3.937-.843-1.78-2.405-3.594-.625-1.281-5.718-1.5-1.25-3.845.002-3.843-3.687-.376-9.436-2.53-8.843-1.47-2.343-6.56-2.219-1.5-1.75-6.687-18.434.125-4.186 188.067-17.31-4.936 8.842-2.094.594 1.563 5.593-1.094.75-.938 4.749z"/><path id="MX-BCS" class="fil0 str0" d="m315.952 1293.98 4.655 1.156-1.5 1.312-4.125.532-.375-2.28 1.345-.72zm293.395-40.462 3.218 2.156 2.187 3.343-.03 5.5-2.594 1.281-1.375-2.156-3.593-.625-2.53-4.093 4.717-5.406zm14.78-38.526.718 2.032-1.437 2.061-.905-1.78 1.623-2.313zm67.896-422.282 8.717 14.342 1.375 5.968-4.875-.906-2.219-3.28-3.436-11.905.438-4.219zM531.17 779.774l9.748.5 3.469 4.5 2.937.343 2.53 1.937 4.156 7.592-1.093 2.593-21.622-15.717-.969-1.063.844-.685zm127.263-.75 5.53 4.969-2.906 6.342-1.688.094.125-2.594-2.28-.812.376-1.562-1.438-1.813.562-2.094-.843-1.437 2.562-1.092zm-2.687-4.936 2.719 4.187-1.844 1.03-1.937-1.125-.313-2.437 1.375-1.655zm-24.31-43.994 2.875 4.53 6.187 1.687 1.312 1.876.188 4.812 3.03 6.749-1.47.281-8.248-6.375-2.124-6.312-2.781-2.811 1.032-4.437zm-111.452-14.31.656 4.31-3.436 10.624.343 9.624-2.374 2.124 2.061 4.156-1.03 3.562-1.97.218-.967 1.656.5 2.25 3.56 3.968-.499.905 2.907 2.563 1.374 4.186-2.094 3.437 2.875 2.437 3.905 5.656-.218 1.187-3.313-1.688-.156-2.062-5.562-5.936.594-1.656 1.78.25.688-1.687-.375-3.344-2.5-3.062-4.156-2.156-3.812 1.156-2.187-1.406-.125-1.813 1.28-.25 6.093-16.154 6.158-23.056zm112.702-3.53-1.407 3.749-1.625.75-.469-2.312 3.5-2.187zM522.61 696.849l-.5 13.811-1.156 4.281-1.562-1.093 3.218-16.999zm.186-16.248.5 6.499-.532 7.842-.875.03.907-14.371zm103.298-2.874.969 10.31-2.22-1.374-1.249-4.374 2.5-4.562zm-20.435-.126 1.688 3.906-1.03 1.593-1.282-.625-1.282-4.406 1.906-.468zm-2.061-30.557-1.563 3.187 1.25 5.219-3.75-2.313-5.342 8.342v2.875l-1.75 1.718v2.124l-1.876.156-.406-2.374 1.25-1.407.561-5.25 3.281-5.436-.594-4.562 3.062-.78.562-1.345 2 1.25 3.315-1.404zm-16.217-5.906.562 2.468-1.406.156-.532-1.688 1.376-.936zM433.997 589.49l4.186 1 2.343 4.906-3-1.969-6.154-1.5-.376-.875 3.001-1.562zm89.237-46.15 3.313 3.125-1.063 3.812-1.937-.5-1.562-4.406 1.25-2.03zm15.841-17.217 1.312.156.875 1.937-2.906.125-.562-1.437 1.281-.78zm-260.4-38.744 4.28 2.343-.312 1.656-4.28-3.187.312-.812zm83.458-4.874h2.03l1.28 1.28.907-1.28 99.048.312 2.718.813 2 5.343-.219 1.562 4.03 3.218 1.25 6.124 3.375 4.03 1.312-.124 3.843 5.311 8.686 2.687 1.687 1.937 2.937.469 5.031 3.468 2.219 3 2.187 11.654 5.124 5.656 3.03 6.904-1.28 2.375 8.123 6.562 7.936 2.03 1.469 1.782 2.906-.031.469 2.28-1.781.094-2.781 3.25-.72 4.936 5.25 7.561 2.812 1.437.125 1.438 2.874 2.062 1.031 4.28-2.187 1.719-1.469 4.03 3.656 2.28.906 3.657 3.375 2.062 2.156 5.28 3.125 2.343 4.843-4.312-10.78-11.186-.719-9.092-2.124-5.124 2.312-1.469 5.78 4.374 2.095 3.406 4.218 2.906 1.469 2.343 6.749 4.281-.594 10.967 1.094 1.75 8.499 2.656-1.876 5.094.126 3.874 3.593 5.874 2.22.969.686 1.562.219 3.562-1.094 2.062 6.187 16.123-1.812 2.937.312 4.218-1.625 2.25.344 3.093 1.407 1.812.25 6 1.969 2.093.125 3.281 5.625 4.593.687-.532 2.5 9.718 5.749 7.499 7.998.968-.687 5.031 3.656 9.811 2.656 2.656.938 3.28-.938.532 1.187 4.78 1.936 2.531-.125 3.125 2.125 1.688 1.374 3.937 2.687 1.5 1.593 2.811 1.47-.406 2.374 1.937.78 4.062 5.031 6.905 2.094 6.499-.531 3.719-2.313 5.53-2.718 2.906-.687 9.655.687 3.25 3.28 4.344.407 8.999 3.312 3.874 2.157 4.906 4.812 4.218 13.56 2.969 3.78-.376.188.875-4 1.563-2.467-2.031-1.312.78.656 4.562 5.25-.406-.031-2.438 3.78-3.218.188-3.062-2.844-6.874.875-3.343 2.219-1.407 4.875.657v2.437l3.312 1.937 1.312 3.5 6.719 3.092 6.436 4.936 2.219 10.093 3.75.937 8.123-2.749.125 1.813 1.656 1.53-2.187 2.687.218 6.343 10.124 9.873-.875 6.155.968 5.28 1.22 1.47 16.81 8.218-.969 2.53 4.469 6.468-.687 2.157 1.312 1.344-1.593 13.716-1.844 3.937-5.843 7.218-3.25 2.25-6.874 1.687-3.78 2.563-.063 2.343-6.468 3.562-1.656 3.25-2.937 2.312-2.906.125-2 2.094h-3.596l-7.562-6.28-3.656-8.655-4.562-22.184-7.812-14.279-5.718-7.624-19.341-10.248-36.37-36.026-33.744-20.436.375-.812-3.624-3.875-4.843-.656.188-1.5-2-.219-3.187-9.28.875-.343-1.469-1.813-3.093-.937-.313 3.561-7.53-.624-.187 2.343-1.875-.031.468-4.625-2.28-6.28-6.842-7.53.843-.78-1.75-1.562-2.125.843.407 1.374-4.562-.75-6.28-3.03-.969-2.156 1.688-.093.343-2.375-1.936-1.25-.532-2.437 2.031-3.03-.843-.5 1.219-2.25-1.375-.406.75-1.406-1.312-1.5-1.78 2.874.905 2.375-1.219 1.53.156 7.906h-2.283l-1.5-3.594 2.406-4.843-2.03-4.343 2.53-1.407 2.312-5.218.063-3-2.687.376.5-5.906 2.718-6.28.843-5.53 2.22-.376.187-7.655-1.562-.344.187-3.656 1.813-1.374-1.219-1.031-.656-3.344.937-3.124.938-.156.406-7.53-.406-4-2.5-3.343-1.063-8.998-6.343-16.748-2.937-3.875-6.03-3.313-2.718-8.905-5.124-6.062-4.936-1.25-.594 2.063-1.407.406-9.967-7.28-2.156-.813-2.094.875-2.468-3.719-6.187-4.374.03-1.374-1.968-.094-11.218-9.249 3.03.281 3.969 2.937.406-.75-3.313-2.405-3.375-1-2.156.687-7.093-6.187.594-.594-1.25-1.562 1.188-1.906-5.405-6.468-2.937-6.187-1.126 3.28-4.718-2.187.969-1 1.593.5 4.843-4.875 1.312-4.03-2.563-8.781-1.875 2.031-1.187 10.062-1.75 1.53-2.187-.719-1.187 2.343.188 5.718-1.407.156-6.686-4.156-4.718-.812.657-1.656 1.687 1.219.219-1.187-1.656-.625-4.5.688-2.5 2.78-1.218 3.72-1.969.875-.03 1.812-2.22 1.25-2.562-.813-2.5-1.625-2.187-4.406-5-1.25-5.03-11.529-5.655-4.186-6.905-1.78-1.407.499-.562 1.718-1.374.093-4-4.186-3.437-6.218-3.375-2.5-3.812-1.813-6.312-.937-2.343 2.062-7.592-4.843-1.593 1.281-1.5-.812.188-2.5-1.937-1.22-1.656.344-.75-1.156-.062-10.998-1.5-4.905-7.343-5.969-10.405-3.78-3.594-7.03-5.218-3.905-.219-3.188-2.124-1.437-1.937 2.969-2.405-1.094-.969-2.843-3.218-1.656-1.75.843-3.375-8.78-2.468-2.437 2.5-1.282 3.312 2.844 7.28-.687 4.75.719 1.126 1.562 4.28-.562 5.062.938 1.437 1.53 4.937 1.031 8.655-.719 1.843 1.094 7.624-4.125 1.876 1.093 2.374-.469.47-1.875-1.97-.125 3.437-3.75 2.687.906-1.625 7.75 2.375 3.937 4.687 3.75 3.968 1.155 4.218 3.75-.156 1.312 2.5.812 3.187-3.343.188-2.75 6.562 2.25 4.874 9.25 2.781.436 1.844-3.656-4.906-5.061.376-3.28 2.094 2.03.468-1.28-1.78-1.407.843-1.906-1.437-5.437.719-2.812-5.468-4.5-3.218 5.906.594 3.562-9.936 3.78-5.124-3.875.75-1.687 1.875 1.562-2.312-6.187 3.656-5.437-1.688-1.5.654-4.459z"/><path id="MX-CAM" class="fil0 str0" d="m2131.03 1260.76 1.562 2.468-2.124 1.906-1.688.687-3.312-1.78-1.187 1.03 1.219 1.032-5.187 4.186-1.687-2.094-.906 1.813-6.624 2.686-3.406.313-1.687-1.78.843-1 7.561-1.22 16.623-8.247zm89.675-167.039-.5 22.81 12.874 1.593 3.03 6.28 1.407.562 3.468-1.093 2.937 3.092 1.5-.28 1.25-3.156 2.467-2.28 1.312.875 3.218 5.5-.343 2.843 1.78 3.25 5.719 3.656 6.187 13.935 12.06 6.561 3.656 7.78 9.905 11.186 2.468 10.749 1.375 1.437 4.186 5.655 16.56 13.28 10.655 14.592-.562 18.278-3.657 2.062-1.28 2.094.686 7.874-2.5 16.029.532 3.968 3.093 3.875.468 2.218-1.593 4.281 2.563 1.438-1.78 5.218 1.468 4.31.875 14.685-1.78 3.938-7.625 8.842.781 7.687-.063 10.405-143.542-.03.063-5.125-12.435-4.936-2.125 1.312-2.405-2.812-4.875-2.061-5.124-4.843-11.404-2.5-8.718.406-.938 4.062 1.063 5.686-.938 2.25-5.249.344-4.03 1.999-6.905-3.5-4.687.47-4.093-2.062-2.719-4.469-10.842-7.28-3.812-5.718-3.375-8.093-1.407-1 .563-6.156-3.469-4.436-1.125-.499-.25 1.311-1.656.406-2.157-3.31-3.093-.157-4.499-3.124-1.968-2.844-3.562-11.624 9.78-1.75 30.714-1.906 2.75 4.406 4.654 2.5-1.875 3.687-.843-1.219-.969 1.063-3-4-2.28 2.656-2.124-1.312-.75.562.532 2.25-1.407 1.78 1.844 2.313 3.593-.78-1.406-3.5 2.468.125.875 1.437 1.78-.436 3.437 2.25.5 1.75 21.215 5.218 4.469-.406.5-2.187 2.28-2.188 13.904-4.78 2.563-9.124 1.968-1 1.094-4.125-.72-2.187-3.436-3.125-2.874 2.25-3.594-1.906-.906-3.062 1.906-1.47-.218-2.468 3.03-3.25-2.405.595-2.188 4.155-2.374 2.25-1.625-.156-2.563 2.375-.375 1.75-1.97.093v-.75l7.813-8.03 21.278-11.436 14.967-10.78 15.185-14.154 1.47-2.906-.25-3.188 1.624-6.25-.656-6.779 2.093-5.625-1.593-1.75-.125-2 2.906-3.56.594-3.219 12.03-8.936 4.405-7.75-3.062-8.467.938-4.28-1.281-4 1.186-.906-1.218-13.998.937-2.437-1.406-10.624 4.186-11.123 1.375-9.435 3.566-4.44z"/><path id="MX-CHP" class="fil0 str0" d="m1929.47 1482.82.562-2-.188-1.28 1.25.03 2.375 3.594-3.999-.344zm-1.156-12.53-.03-2.437-.376-6.624 1.625-4.53-3.906-9.155.25-2.656 6.843-19.622 9.186-8.186 2.5-10.905 2.375-3.187-.062-6.25 1.063-2.937 2.936-3.53 6.093-2.687 11.624-9.03 7.905-9.904.188-5.03 4.343-5.844 3.75-2.468 1.843-3.624 2.343-22.123 5.187-.875 1.687-1.906 6.687 2.656 4.343 5.28 2.406 1.094 8.717-.282-1.093 5.28-4.437 6.624-.437 1.813 1.187 2.906 6.468 6.812-.938 5.843 1.126 1.031 3.905-.188 1.375-1.093 1.687.624 3.78 6.062.125 2.062 2.062 2.719 2.531.968 5.968-2.625 7.562-7.03 18.216-13.342 1.78-2.594 10.28-3.719 1.22-2.437-1.282-5.468.376-1.156 1.343.25-.125-1.374 5.53 1.5 6.093-.094 2.219-5.748 4.53 1.156-.375 1.843 1.75.938 1.843-1.375 3.719.562 3.78-.875 3.312 4.25.156 6.28 7.999 3.937 3.968 10.31-2.343 8.312 13.56 3.75.594 2.593 4.093 1.156 3.437 5.593-2.375.875-1.656 3.218-2.03.187 1.78 3.063 2.375-.126 3.062 3.5 2.593-1.094 2.907.968-.063 2.594 1.656 2.312 1.968.812 1.031 3 3.5 3.624 3.28.72.938 3.217 4.311 4.281.344 2 4.186 1.25 1.656 1.936.843-.906 3.437 1.375.75 2.656 3.218.002 2.749 2.25 3.53-.25.126 1.717 6.686 3.906 4.312 6.811 1.094 10.062 2.562-.313.344 1.718-2.094.72.72 1.249 2.374-1.063 1.125 1.593 2.75-.968 1.78 1.968 1.781-.875 1.656 2.062-.469 1.53 5.344.003 1.187 1.843.375 1.813-1.125 1.094 1.063 1.655-1.031 2.75-1.688.125-.562 2 1.126 1.093-2.406 5.061 2.5 3.313-2.094 1.374 1.75.906-.062 1.281-2-.156.844 4.25-100.423-.844-38.275 65.835 12.091 15.622-3.125 5-2.656-.282-1.093 2.25.406 7.78-3.28 4.311 2.874 13.405-2.28 3.656-1.187 4.812-2.687 2.22-13.935-12.686-34.34-36.183-.312-2.656-2.5-.594-34.87-32.87-16.998-13.404-18.997-13.185-11.936-5.75.875-1.249 2.343-.187.906 1.906 1.968-.844.437-1.5-3.499-5.748-14.56-3.156-2.281-2.843-.688-4.096z"/><path id="MX-CHH" class="fil0 str0" d="m1203.92 387.608-7.06 12.999.06 1.094 5.34 1.906.03 3.249-2.06 3.063-2.63-1.001-2.18 1.063-5.41 12.529-4.4 3.468-5.13 1.906-7.09 11.812-1.75 3.436 2.72 4.437-2.94 4.312-8.31 21.278-1.87 1.188-5.54-2.219-.03 4.843 3.5.563 1.53 4.561-1.06 1.499-5.93 1.188 2.37 4.5-.19 2.593-1.78 2.563 2.25 2.436.44 2.25-3.41 3.624 2.53 14.124 3.53 1.562.75 2.594.29 3.311-1.5 3.562 2.12 11.498.69 15.061 1.69 2.124 5.71 2.468-1.28 4.813-3.59.125-3.34 3.125-6 2.842 1.37 2.5-.31 4.093 6.72 5.937 3.37 5.718-3.44.75-3.59-2.687-1.59 2.125-.88-.532 1.38-2.25-2.47-.375-10.03 3.282-4.72-1.782-2.75 2.532-4.47-.875-2.12-3.125-4.47-.75-4.31-2.781-2.28 1-.97 2.312 1.5 2.062 4.81.375-.22 3.124-7.81 1.219-3.59 4.75-4.72 1.687-5.91 9.624.75 4.186-.78 2.406-1.37.75-5.34-.625-5.44 2.844-3.06-.657-5.38-3.718-6.09-5.905-7.94.749-3.81-1.031-2.31-2.124-1.69-.125-.03 3.375-5 2.187-1.62 1.812-1.78.281-1.29-1.687-5.25 3-.71-1.876-4.88-1.467-3.97.78-3.43-5.906-5.13.907-2.37-3.405h-3.06l-4.94-4.251-6.06-.718-.88-1.812-3.93-2.218-3-6.062-3.32-.719-5.964-3.843-3.969-.188-2.092-2.781-2.407 1.688-.655 4.03-5.5 1.781.156 5.75-1.969 1.468-2.812 10.593.095 4.999-2.813 4.78.469 1.437 3.5 1.563-.094 3.343-1.031 1.813-6.187 2.718-2.687 2.718v4.25l-3.125-.501-1.281 1.125 1.126 6.687-2.875.812-5.374 12.467 3.03 4.874 1.906 5.937-6.624 10.686-11.03 8.499-3.842 5.031-2.001-.875-2.093-3.782-6.28-1.03-1.625-2.687-5 .687-3.374-2.062-.968-4.125-7.218 2.438-1 2.031-6.687-8.718-1.843-10.092-9.029-15.279-7.375-2.156-9.967-.969-11.904-3.531-3.812-14.622-9.718-15.686-.219-5.874-4.436-2.874-1.001-3.406 1.532-6.25-1.532-2.561 1.251-7.093-3.312-7.28-3.812.78-1.906-.75-.375-9.06-2.126-1.188-15.278.688-5.499-1.219-6.312 1.938-11.06-5.75.062-1.437 2.281-1.312-1.5-10.749 3.905-9.81-.124-5.375-5.093-12.717-3.032-4.467-1.967-6.531-8.78-5.312-1.625-2.031 2.187-7.655-1.187-5.186-6.531-9.312-5.687-2.312-1.218-2.156 1.844-8.624-4.875-3.343-.594-1.906 3.25-4.344 7.905-1.53 4.53-2.656 2.407.437 5.53 4.093 1.563-.093 4.404-3.281 3.563-.375 3.031-3.811 2.906-.282 1.874-3.718-7.03-2.688-4.843-5.655 1.312-9.06-2.593-6.094.594-3.249 4.624-8.187-2.5-8.28 2.625-3.999-1.437-7.968 4.655-3.936.312-8.406 4.313-2.093.906-1.594-.813-17.716.5-2.812 2.5-2.968.032-8.125-2.064-19.434-2.342-3-1.781-.062-1.063-3.124 1.843-15.404 3.968-8.03v-3.469l-4.53-4.155-.499-3.093 2.656-1.625.873-5.687-6.06-19.215.186-3.719-3.436-4.562-.344-2.531 2.094-5.031-3.25-2.905-.281-7.561-8.53-8.281.124-1.906 4.906-.249-.062-5.655 1.531-3.97-.75-4.998-5.124-8.874-1.625-5.999 2.937-4-3.281-3.249 44.056-.125v-41.119h131.387l3.125 3.344 4.968-.407 3.155 1.749 2.719 3.219 5.469 12.592 2.373 1.281 3.531 7.405 9.999 6.124 5.656.563 3.908 2.499 1.84 4.624 1.78-.03 1.16 2.061h1.62l6.81 8.312.78 2.624 4 1.406 1.29 1.781 4.68 1.844 3.63 3.124 3.78 8.468 3.75 1.812 1.12 2.375 5.85 3.687 1.71 2.812-.53 1.469 3.06.5 4.57 3.155.87-1.156 2.84 2.718 2.78-.78.66 1.936 1.25-.718 1.75 2.062 1.31.031-.34 1.375 3.75.594 2.5 4.218 2.65 1.656 2.85-.437 1.78 2.28.78 4.062 3.59 1.344 2.66 3.187 2.37 6.625.07 4.56 1.43 2.344-.59 2.656 3.47 2.281-.69 1.031 4.75 4.968-.25 1.657 4.25 3.436 1.44 4.968-.5 4.687.87 3.124-1.53 6.468 1.12.657-.12 3.374 1.34 2.281-.96 1.281.84 3.344 3.37 2.905 3.57 5.968 4.09 12.217 10.78 8.562 1.25 2.593 3.53 1.937 1.66-1.031 6.15 3.124.38 1.375 1.78.562-.38 1.969 3.81 5.374 4.5 1.75 4.35 4.093 6.15 2.812 9.41 1.312 4.31 2 1.25-.5.69 4 1.24-.906 3.13 4.342 4.59.969.81 1.218 7.32-.062 6.59 6.53-.34 1.5 1.87-.218 1.53 2.343z"/><path id="MX-COA" class="fil0 str0" d="m1480.94 498.999-.82 1.906-3.4 2.469-2.97.186-6 4.063-17.25-2.875-11.46.813-3.53 1.969-1.72 7.311-5.28 8.123-.91 2.468.5 7.156-1.97 1.531-6.96-.375-6.57 2.874-3.71-1.187-3.72 3.25-5.72 9.311.78 10.436 8.81 6.468 1.85-.156 2.18-9.749 1.97.219 6.41 4.624 1.31 16.029-2.63 6.999-3.28 2.406-3.56 6.842-10-.125-8.15 5.312-10.97.875-2.72 2.812-3.25 8.531-7.56 7.56.06 4.062 14.19 14.936 8.44 6.312 3.28 9.716 4.43 3.594 2.69.25 1.19 2-3.1 9.061.75 7.717 2.63 5.562 3.47.437 2.62 2.062 6.66.251 1.09 1.125 1.75 10.654 2.56 2.656 10.25 5.874-1.59 3.281 11.25 1.969 1.56 2.5 2.75.999 1.22 2.969-2.35 2.781-.47 3.592-1.06.626-6.06-.095-10.65-2.749-4.1-4.78-5.43-.532-2.94.969.9 2.53-5.59 1.781-5.31 10.062 2.78 9.154.28 6.749-.62 1.219-7.53.188-.5 1.156.9 2.593-1 3.75 4.32 4.843.34 4.343 2.03 3.843-3.12 10.186-6.63-1.468-2.34.999-.56 2.437-4.5 1.156-6.53-2.53-4.28-4.062-6-11.749-3.91-2.561-9.25-1.156-7.09 1.593-2.88 2.749-8.84-.063-1.94-11.123-3.62-.999-4.59 1.28-6.75-9.591-6.13-5.187-7.81-3.031-7.93-5.343-29.37-1.906-16.88 3.343-1.96 1.656-.07 5.093-9.53 6.343-1.81 3.156-1.59 6.686 1.56 5.374-.88 1.625-2.15.657-6.56-4.218-8.69-.501-10.68-4.968-4.07-3.75-1.93-2.686-1.69-9.749-7.59-6.03-1.88-5.437-5.53-6.624-1.97-9.843 4.25-4.249 7.06-1.406-2.5-3.843-4.18-.812-2.1-2.563.29-2.687 4.37-6.717 3.31-2.532 3.75-9.716-3.75-13.967-.56-6.218 1.28-7.124-5.25-12.342-.53-4.342 1.37-9.156-4.31-12.405-7.18-6.654-2.57-3.782-3.81-3.686-9.31-2.469-2.25-1.968-3.37-5.718-6.72-5.937.31-4.093-1.37-2.5 6-2.842 3.34-3.125 3.59-.125 1.28-4.813-5.71-2.468-1.69-2.124-.69-15.061-2.12-11.498 1.5-3.562-.29-3.311-.75-2.594-3.53-1.562-2.53-14.124 3.41-3.624-.44-2.25-2.25-2.436 1.78-2.563.19-2.593-2.37-4.5 5.93-1.188 1.06-1.499-1.53-4.561-3.5-.563.03-4.843 5.54 2.219 1.87-1.188 8.31-21.278 2.94-4.312-2.72-4.437 1.75-3.436 7.09-11.812 5.13-1.906 4.4-3.468 5.41-12.529 2.18-1.063 2.63 1.001 2.06-3.063-.03-3.249-5.34-1.906-.06-1.094 7.06-12.999 2.15.22.85-1.968 1.31.249-.81 1.782 4.25 2.217.31 1.595 1.37-1.407 1.07 1.25 5.03-.344 2.65 1.188 2.78-1.125 1.6-7.03.84.624.91-3.311 2.56-.344 3.4-5.374.07-1.844 1.93-.781 1.16.905 3.09-1.467.53-2.219 1.97.687 1.44-1.094-.63-2.03-2.5-1.406 1.35-2.531.53-5.5 3.22-.687-.25-1.031 2.22-2.843-1.19-.781.16-2.812 2.18-3.906-.4-3.281 2.31-1.874 1-4.843 1.69.406.21-3.874 3.69-3.438-.37-1.312 2.15-4.874 3.47.718 4.31-1.843 1.97 1 2.69-1.844-.25-1.562 8.37 1.625 2.19-2 1.28-5.062 3.37-3.093 4.38.999.03 1.219 6.65 1.094 5.04 4.436 4.37.532 1.56-.437.06-1.031 3.22-.406 4.94.718.84 1.25 1.41-1.218 6.4-1.001 1.47.906-.19 1.688 2.44-.781 5.25 2.343 1.35-.594 1.15 1 1.28-.906.88 1.25 5.97-1.75.24-1.749 1.91-1.563.59 4.656 6.19-2.626.63 3.282 3.31-1.657.72.657-1.28.968 1.18 3.188 1.72 1.249 1.03 4.437 3.75-.656 1.19 1.844-.88 4.78 1.91 1.375.72-4.156.97-1.093 1.43.437.47 5.062-1.53 3.343.94 1.062 5.97.563 1.75 3.281 6.9 1.531 4.07 7.874 5.12 2.343 4.47 3.218.93 2.5 6.16 3.155 2.37 5.25-.75 1.312 7.44 5.593 1.25 2.75 1.09 11.685 1.44 3.812 2.31.219 2.07 6.28 2.12.345 1.06 1.905.32 4.125 1.9 1.874.6 6.655 4.09 2 .06 2.532 3.91 2.405-1.16 3.499 2 2.656 3.87 1.156-.37 1.282-2.03.531 2.15 2.937-.71 4.281 4.68 7.499-.12 3.374 3.03 3.499 2.37.282.94 3.437 9.81 4.281 2.75 5.623 2.53 1.437.6 3.188 2.56 3.718 2.84.375-.06 3.406 3.12 3.155-.56 3.187 2.22 3.313v3.311l2.09.344z"/><path id="MX-COL" class="fil0 str0" d="m1195.54 1246.01-7.71 7-3.19-.96-1.19.87.09 5.59-5.81 3.69-2.12 5.31-17.22-13.62-16.18-8.66-12.56-4.25.43-2.62 1.44-.16.47-1.93-1.41-1.63-3.43-1.87-5.75 2.93-.78-1.96-5.47-2.32-14.16-3.78 1.04-1.37 1.93 1.28.57-.81-1.85-.69 6 .16 4.62-5.6 3.57 1.5 1.75-.34 1.5-2.63 2.71-1.81 1.72 1.25 11.78-2.75 3.97 1.19 3.53-.91 9.69-7.25 10.15 1 4.41-.65 10.06-5.25 7.84-7.53 1.91.41 1.5 9.02-.5 3.19 3.03 2.6.65 2.43 3.35 1.5-1.56 5.63.21 9.74-1.75 4.13 2.57 4.81z"/><path id="MX-DIF" class="fil0 str0" d="m1557.43 1236.74-2.97-.07-7.34 2.35-2.85-2.5-1.97.37-4.06 3.41-4.15-3.66-4.16.75-8.22-13.68-.28-3.07 9.91-8.59 1.72-6.19 6.99-7.68 1.04 1.12-.16 3.32 4.9 5.99 1.5 4.85 6.69 5.59 1 4.63 1.47-1.19.72 1.53 1.09 4.94-1.47 5.21z"/><path id="MX-DUR" class="fil0 str0" d="m908.772 679.192 1-2.031 7.218-2.438.968 4.125 3.374 2.062 5-.687 1.625 2.687 6.28 1.03 2.093 3.782 2.001.875 3.842-5.031 11.03-8.499 6.624-10.686-1.906-5.937-3.03-4.874 5.374-12.467 2.875-.812-1.126-6.687 1.281-1.125 3.125.501v-4.25l2.687-2.718 6.187-2.718 1.031-1.813.094-3.343-3.5-1.563-.469-1.437 2.813-4.78-.095-4.999 2.812-10.593 1.969-1.468-.156-5.75 5.5-1.781.655-4.03 2.407-1.688 2.092 2.781 3.969.188 5.964 3.843 3.32.719 3 6.062 3.93 2.218.88 1.812 6.06.718 4.94 4.251h3.06l2.37 3.405 5.13-.907 3.43 5.906 3.97-.78 4.88 1.467.71 1.876 5.25-3 1.29 1.687 1.78-.281 1.62-1.812 5-2.187.03-3.375 1.69.125 2.31 2.124 3.81 1.031 7.94-.749 6.09 5.905 5.38 3.718 3.06.657 5.44-2.844 5.34.625 1.37-.75.78-2.406-.75-4.186 5.91-9.624 4.72-1.687 3.59-4.75 7.81-1.219.22-3.124-4.81-.375-1.5-2.062.97-2.312 2.28-1 4.31 2.781 4.47.75 2.12 3.125 4.47.875 2.75-2.532 4.72 1.782 10.03-3.282 2.47.375-1.38 2.25.88.532 1.59-2.125 3.59 2.687 3.44-.75 2.25 1.968 9.31 2.469 3.81 3.686 2.57 3.782 7.18 6.654 4.31 12.405-1.37 9.156.53 4.342 5.25 12.342-1.28 7.124.56 6.218 3.75 13.967-3.75 9.716-3.31 2.532-4.37 6.717-.29 2.687 2.1 2.563 4.18.812 2.5 3.843-7.06 1.406-4.25 4.249 1.97 9.843 5.53 6.624 1.88 5.437 7.59 6.03 1.69 9.749 1.93 2.686 4.07 3.75 10.68 4.968 8.69.501 6.56 4.218 2.15-.657.88-1.625-1.56-5.374 1.59-6.686 1.81-3.156 9.53-6.343 1.1 1.625.12 5.155 2.35 1.063 1.12 3.436 4.78 2.219 2.5 2.937-2.53 15.311 3.78 1.405 3.19 12.498-3.03 1.625-.07 1.281 1.57 1.157-.38 2.124-18.97 1.813-5.24-.719-2.38 2.843-8.31-2.718-3.12-2.187-3.5-.313-7.03 2.5-6.97-2.187-12.19-.843-5.34 4.279-1.47 4.188-7.5 5.686-6.47 8.843-7.06 6.686-7.5 2.25-.72 4.125 2.44 1.593 1.16 5.156-.97 5.249 1.16 5.905-1.41 3.749 2.78 13.342-8.75 7.562-7.25 9.029-.28 5.874-4.03 18.03-1.91 1.156-4.28 8.529-.25 4 2.66 9.654-.5 17.342-.78 1.968-10.03 4.438-3.16 4.718-3.62 9.53-9.19 4.061-1.25 4.311-1.5.095-5.68-3.468-2.97-6.468-7.78-7.469-5.34-1.342-4.35-5.5-4.22 7.999-2.53 2.655-2.15-.093-6.88-14.31 5.28-5.5 5.32-2.717 1.87-2.781-.37-3.875-3.6.093-1.62-1.156-1.81-7.685-6.54-.501-4.15-1.874-4.78-5.468-1.69-.094-2.84 4.093-5.25 1.093-6.87-8.249-6.63-6.811-1.87-.187-2.66 1.874-6.37-.468-1.91-3.999-.41-7.062-3.81-4.186-2.31-5.437.84-2.907-3.28-9.124-1.37-8.779-5.38-5.156-2.81-6.186-3.37-3.781-1.97-9.217-2.22-3.312-2.468-8.093.811-2.812-3.218-2.906-.281-6.873-5.437-7.093-.437-3.344-3.375-.812-2.78-4.312-4.531-3-12.623-3.655-2.094 3.249-8.717 6.625-4.156.593-2.155 1.718-2.187-1.531-2.625.563-1.844-6.125-3.062-4.405-2.531-12.873-.624-.782-1.781 1.313-1.781-.624-3.781-13.967-4.124-.97-2.781-8.154-7.186-.687-1.657 1.374-3.75-2.999 1.031-4.5-3.749-7.436-2.343-2.031-1.5-5.686-3.155-1.906 1.593-6.125.281-15.998 4.156-10.029-.25-2.125-1.469.251-1.875-2.25 5.406-6.937 3.718-2.407-.469-2.28-2.28.5z"/><path id="MX-GUA" class="fil0 str0" d="m1485.75 1034.2 1.56 1.53-.34 6.44-3.6 5.97 7.75 1.9-.12 3.66-2.22 4.5-4.53 2.09-1.75 3.22-3.44.53-5.4-5.47-4.75 1.75-7.03 10.44.31 4.53-2.09 5-2.57-1.5-.68 3.44-2.06 1.25-8.5-1.19-4.69 2.22-14.31.87-2.25 4.41-2.03 11.87.44 2.38 3 2.21 2.03 5.44-.04 8.47 3.41 5.81 6.31 4.41 2.25 5.21-1.34 3.41 1.87 3.69.32 4.12-1.6 5.47 2.1.16-.25 3.09-3.69 3.59-6.44.88-2.28 2.47-1.5 4.37-1.94.56 1.04-4.69-1.57-.75-6.06 1.5-4.31 3.19-10.75-.53-8.06-2.84-4.06-.44-1.91.91-.81-.32.66-1.47-1.44-7.31-6.91 1.88-4.34-1.38-2.06 1.82 1.03 2.56-3.81 1.62-5.63-2.31-7.93-.75-1.47-1.56-.06-10.13-1.41-5.4 3.25 1.62 1.97-.84-4.19-5.62-3.4-2.35-4.47.75-1.97-1.22-6.56 2.16-6.28 8.75-2.85-.94-6.9.44-1.5-1.35-3.69 2.19-2.53-.28-1.37-1.4-2.13-8.91 1.13-1.25-1.79-1.53-1.71.22-1.03-1.69-2.69-.15 1.19-8.66 5.59-10.72-4.91-8.96-5.15-1.35-1.72-4.09 6.28-6.13.37-2.59 5.66-4.69 5.97-12.34 7.78-5.97 3.5-8.46-.35-2.03 1.63-2.32 4.59-.28 1.34-1.15 2.1-4.28-2.53-1.47 1.81-6.85-2.19-.37 4.75-17.28-.37-2.19 3.75-4.25-2.32-2.59 3.82-4.03 3.03 1.97 2.53-2.94 3.62 2.09 9.09.97 3.94 2.28 14.47 3.32 3.84 2.34 3.34-.13 15.53 11.63 8.56 4.47 8.6-.1 4.75-1.9-.47-3.5 1.94-5.72 3.37-2.28 12.15 4 9.85 6.25.84 2.15 1.5-.28 5.31 6.66 5.66-.53 1.22-1.69 2.12 2.62 5.03.13z"/><path id="MX-GRO" class="fil0 str0" d="m1435.85 1237.67.938 9.186-3.281 6-2.312 13.217 1.156 4.998 5.468 2.375.313 3.72-.781 2.249-5.187 5.655 2.032 2.062 4.155-.843 4.718 1.03.687 3.376 4.906 6.123.125-1.344 1.937.093 1.063-1.218.594 1.156 6.187-6.81 7.717-1.813-2.156-4.312 1.093-1.875 3.187-1.53 2.469 1.343 10.967-.719.906-1.813 2.749-1.312 2.656.906 1.374-4.875 5.5-1-1.125-5.374 2.53-.156 2.844 3.375 6.187 2.094 2.562-1.53 2.531.405 1.593 2.626-2.031 3.499 1.375 1.093 3.375-.719 3.499 1.437 6.312 8.342 17.217 2.187 7.186 7.28-.156 3.842 4.218 3.687 4.186 1.937 3.813 7.03 9.342-.625.687 2.5-2.593 3.03 13.154 5.563.376 3.343 4.374-.938 1.469.844 2.687-2.687 4.843-.437 5.03 6.187 5.031 2.5-5.437 12.342-.531 4.406 8.53 18.935 1.875 14.31-2.874 2.594-.563 6.436 1.75 1.625 7.187 2.437 1.406 3.656-.344 5.969.844 1.843 3.624.78 1.312 1.688 1.125 4.875-2.874 8.999-2.844 2.874-3.812.72-2.906 2.093-.562 4.218-12.842 11.218-1.437 6.312-14.498 11.06-11.123-11.278-6.03-7.843-5.28.5-1.031 1.75-4-.594-33.183-10-9.718-2.03-12.498-.125-5.093-1.656-6.499-3.406-5.655-4.624-3.093-.813 1.937-2-.72-1.374-3.061.125.594 1.344-1.781.78-3.469-5.404-2.749-1.375-83.082-29.621.406-1.813-1.593-2-7.78-5.467-2.375-3.062-19.497-8.218.72-2.625-2.844-3.375-2.531-1.781-6.812-.875-.313-1.688-3.28-1.187-2.375-5.906-5.811-4.155-4.281-7.343-11.905-6.624-6.874-2.125-4.281.562-2.313 2.563-1.655-1-2.563-3.937.344-12.28 2.375-1.968 8.248-2.563 2.687.78 4.562-1.999 2.375-2.405 5.061 1.156 2.563-.875.562-1-5.749.093 1.031-2.812-.343-3.843-2.032-4.406 1.813-3.435-1.968-3.843.406-1.063 2-.093-1.47-2.468 2.124-1.219 1.937.437-.656-1.437 1.75-.344 1.655 2.563 1.5-2.406-1.03-1.28 3.312-1.032.188 3.28 1.875-1.186.906 1.187.468-2.094 2.094-.75 3.531.093 3.78 5.937 6.25 2.844 10.811-1.593.657-1.438 6.343-1.437 5.374.125 1.47 1.53 6.342 1.47 4.905-.594 3.531.875 3.687 5.187.25 2.561 2 .406 4.437-3.435 1.936 1.78 4.5.719 1.25 2.468 4.654 2.656 1.063-1.312 1.25.938.843 3.312 2.53-.093 2.406-3.156-8.843-11.84-.937-9.812-3.812-13.248 1.469-3.218 3.436-2.656 1.312.125 1.781 4.906 7.624-9.124 2.906-1.655 3.406-7.655 6.936-4.411zm14.498 58.584.219 1 1.187-1.063-1.406.063z"/><path id="MX-HID" class="fil0 str0" d="m1583.17 1042.86 2.63.53.93 2.34-.93 8.31 5.71 5.35 3.94 2.06 4.1.22 2.68-2.81 6.35 1.93 7.9 10.69-5.81 7.68-1.97 6.91 1.75 3.31-.81 1.97-4.53.72-4.19-4.34h-1.44l-7.46 6.74-1 2.69-2.04 1.69-1.03 11.43-1.81 4.07-.78 6.5 3.66 8.09 2.75 3.37 1.56-.68 4.15-4.85 7.75-3.62 5.88-6.97 5-2.28 6.68-7.28 2.6-1.09 4.56 2.96.22 9.38-8.94 7.87-2.84 4.31-11.31 5.78 2.18 4.41 6.63-1.5 1.43 6.84-2.53 15-4.81 9.62 2.19 14.78-7.44-1.56-2.56 4.59-4.53 3.78-6.53.88-3.12-.72-15.66 5.34-.62-4.4 5.74-12.97-.53-5.44-18.15 1.91-5.37 8.06-.75.66-2.04-1 .07-2.81-2.72-5.53.62-1.63 2.85-1.66 2.65-.25 3.47-13.37-1.47-4.18-1.87-.22-8.53 4.34-12.13 3.34-1.65 11.72-2.16 2.37-6.65-3.15-.53 7-3.78 3.09.31-7.78-1.25-4.19-2.16-2.03-1.06-3.9-3.81-3.94 2.19-3.09-4.72-9.78-2-.78-.41-1.82-14.53-2.15-8.22-4.66-3.68-4.34 3.15-20.44 4.94-1.53 2.84-2.12 9.16-2.25 7.25-5.03-1.97-6.31 3.59-8 3.63-1.31 2.53-3.75 1.47-6.91 2.59-4.87-.84-3.47 5.15-4.47 3.78 2.22 12.84-4.03 4-9.78 7.06-2.34 3.57 7.49 4.18 3.44 3.38-.12 4.22-7.44 2.87 4.09 4.16-9.25 4.93-5.75z"/><path id="MX-JAL" class="fil0 str0" d="m1251.66 1019.74 6.41-3.5 13.15 1.18 5.44 4.41 6.77 3.19 3.94-.19 9.44-3.25 2.25-1.56 7.97-11.1 13.37-6.15-6.13-6.687.75-4.999-.81-1.844 11.06 2.843 6.66 3.563 8.34 7.344 6.53 2.34.88 1.22-3.82 4.03 2.32 2.59-3.75 4.25.37 2.19-4.75 17.28 2.19.37-1.81 6.85 2.53 1.47-2.1 4.28-1.34 1.15-4.59.28-1.63 2.32.35 2.03-3.5 8.46-7.78 5.97-5.97 12.34-5.66 4.69-.37 2.59-6.28 6.13 1.72 4.09 5.15 1.35 4.91 8.96-5.59 10.72-1.19 8.66-8.75.03-6.69 3.25-5.34-.54-4.16 1.44-5.25-.4-3.34 1.06-6.43 5.12-3.32-.25-3.15 3.28-2.94 1.03-.87 4.47-9.28 2.28-.72 2.53-1.38.13-3.28-4.06-7.72-1.41-.93 3.59-2.91-.62-1.12.84-.07 7.35-2.78 4.71 1.57 2.63 1.56.15 1.4-1.75 7.1.88 10.03 2.94 2.06 2 1.9 6.9-1.03 2.53-2.9 2.31 5.97 13.13-1.97 8.09 10.5-.22 1.9 2.13.19 4.87-7.37 7.81-2.66 7.22-7.22-1.81-4.28 2.25-12.56 11.18-6.87 3.78-4.97 5.44-.91.28-3.93-5.5-1.66-.31-6.94 5.31-4.84-.94-5.19 1.28-.15-6.12-2.57-4.81 1.75-4.13-.21-9.74 1.56-5.63-3.35-1.5-.65-2.43-3.03-2.6.5-3.19-1.5-9.02-1.91-.41-7.84 7.53-10.06 5.25-4.41.65-10.15-1-9.69 7.25-3.53.91-3.97-1.19-11.78 2.75-1.72-1.25-2.71 1.81-1.5 2.63-1.75.34-3.57-1.5-4.62 5.6-6-.16-1.75-1.66-1.97.28-.25-1.59-2.06.81-1.53-.93-2.66.4.04-2 1.59-1.72-.41-1.43-2.78-.91-.72 1.34-2.9.6-6.25-3.35-5.91-5.37 1.13-2.25-1.16-2.28-2.62-1.47.28-2.65-1.41-.69-.69-4.66-2.37-2.31-2.62-.09.12-1.13-8.84-6.59-.81-2.28-4.47-4.72-1.25-3.47-12.25-16.65-3.5-7.25.66-6.91-1.07-3.81-2.12-.75-.41-1.87-7-7.31-1.43-5.16 3.28-1.59 2.97-3.53 23.15-3.63 4.69-3.44 2.06-5.03-.97-3.03-4-3.31 13.9-17.56 3.66-1.41 7.28 1.47 9.97-7.62 3.9-.66 4.69 2.28 3.78 4.47 9.62 2.44 8.32 9.4 3.37 1.75 7.19 6.63 2.09 2.44 1.56 4.84 1.6 1 .09-4.56-3.69-4.56.91-1.1-2.28-2.34-1.16-4.78 1.41-2 2.56-.57 4.69-26.59 12.62-.71 2.97-1.25 3.03-3.03 5.34-.88 7.03-4 1.25-2.56 1.25-13.19-.75-4.62-4.34-3.87-5.44-13.41-14.06-1.87-2.66-5.03-.34-8.5-1.65-1.5-3.47-.28-3.75-3.629-5.16 1.625-1.44-9.436 3.88-15.279-.56-1.5 3.37-3.78 4.22 1.061 1.12-9.466 9.69-3.656 1.66 1.156-3.28 10.123.84 1.532 5.62-3.562 3.22-3.688-.5-4.467-5.43-11.999.34-2.468 6.75-4.78 8.31-1.188 5.65 3.155-.53 2.844-3.43 2.562-4.53 5.843-5.28 13.186-.13 10.373 3.78 5.562 3.63.53 1.18-3.624v-21.996l1.97-1.782 10.72-2.092 4.44 1.593 4.37 4.125 1.87 6.029-.12 3.625-11.81 19.278-.28 1.407 1.81 2.062 6.03.062 2.16-2.5 3.96.625 2.22 1.625 2.81-1.375 2.91-5.405 7.47-5.906-3.88-3.218.97-5.843 5.88-2.28 6.78.531 1.28 2.687-2.38 4.718 1.57 1.374 6.71.438 1.6 1.187-2.19 10.842-3.72 9.094-2.31 2.155-3.94.624-10.25 5.246-5.53 5.41-9.12 6.47.56 5.59-1.03 7.72-5.06 5.87-5.59 1.44 2.65 7.75 2.91 1.68 3.19-1.53 2.09.44 1.06 1.81-.31 3.19-3.66 3.5-12.62 5.66.53 1.56 7.81 1.94 2.35 2.53 2.34 5.31 2.94 1.53 7.06-.59 9.06 5.03 3.09-1.5 2.75.21.69-1.75 4.19-.81 5.34 1.35.34-1.16 4.6-1.62 1.03-6.32 1.97-1.68 4.28-1.53 4.75 1.56 11.18-9.09 7.16-4.38 3-4.09 1.5-8.41-8.69-5.56-2.03-5.78z"/><path id="MX-MEX" class="fil0 str0" d="m1451.75 1296.19-1.187 1.063-.218-1 1.405-.063zm27.683-161.474 3.657 4.374 8.248 4.655 14.499 2.157.406 1.813 2 .812 4.717 9.749-2.187 3.124 3.812 3.906 1.063 3.905 2.156 2.031 1.25 4.187-.313 7.78 3.78-3.125.531-7 6.656 3.156 2.156-2.406 1.656-11.717 12.123-3.375 8.53-4.312 1.844.188 1.469 4.187-3.469 13.373-2.656.25-2.843 1.625-.657 1.625 2.719 5.562-.031 2.781 2 1 .75-.624 5.374-8.061 18.185-1.906.531 5.437-5.749 12.966.594 4.437 3.03 5.686 2.375-.75 1.625 1.876 1.22 5.686-1.751 1.906-.125 3.406 3.25 11.341.375 13.749-2.78.562-8.156 6.436-7.968-2.937-2.906-4.968-3.062-2.594-.594-2.593 1.469-5.218-1.094-4.937-.72-1.562-1.468 1.187-.969-4.625-6.686-5.625-1.5-4.812-4.905-5.999.156-3.313-1.031-1.125-7 7.687-1.75 6.187-9.904 8.592.313 3.062 8.186 13.686-12.342 19.685-1.407 4.469-4.874 5.748-.75 3.125-2.531-.406-2.563 1.53-6.187-2.093-2.843-3.376-2.531.156 1.125 5.375-5.5 1-1.374 4.875-2.656-.906-2.749 1.312-.906 1.813-10.967.719-2.468-1.344-3.187 1.53-1.094 1.876 2.156 4.311-7.717 1.813-6.187 6.81-.594-1.156-1.063 1.22-1.936-.094-.126 1.344-4.905-6.123-.688-3.375-4.717-1.031-4.156.843-2.031-2.062 5.186-5.656.781-2.25-.313-3.718-5.468-2.375-1.156-4.999 2.313-13.217 3.28-5.999-.938-9.186 1.75-1.187.72-3.531 4.687-5.718 3.436-7.468-.875-3.062 2.375-5.563 1.344-1.875 2.094-.376.938-1.936-1.375-16.185-1.78-1.469-3-6.092 4.717.313 4.5-1.563.905-1.593.876-6.436 4.155-5.312-.125-1.906-2.718-2.562.25-7.593 7.968-.968 5.999-6.28-.906-5.405-1.688-3 .75-.968 2.75 1.875 2.03-.406-.656-2.25.938-1.968 3.593-2.249z"/><path id="MX-MIC" class="fil0 str0" d="m1307.09 1129.6 2.69.15 1.03 1.69 1.71-.22 1.79 1.53-1.13 1.25 2.13 8.91 1.37 1.4 2.53.28 3.69-2.19 1.5 1.35 6.9-.44 2.85.94 6.28-8.75 6.56-2.16 1.97 1.22 4.47-.75 3.4 2.35 4.19 5.62-1.97.84-3.25-1.62 1.41 5.4.06 10.13 1.47 1.56 7.93.75 5.63 2.31 3.81-1.62-1.03-2.56 2.06-1.82 4.34 1.38 6.91-1.88 1.44 7.31-.66 1.47.81.32 1.91-.91 4.06.44 8.06 2.84 10.75.53 4.31-3.19 6.06-1.5 1.57.75-1.04 4.69 1.94-.56 1.5-4.37 2.28-2.47 6.44-.88 3.69-3.59.25-3.09-2.1-.16 1.6-5.47-.32-4.12-1.87-3.69 1.34-3.41 4.85 3.1 3.81 6-.56 2.34 10.27 9.5-.24 7.59 2.71 2.53.1 1.94-4.16 5.31-.87 6.41-.91 1.62-4.47 1.53-4.75-.31 3 6.12 1.78 1.47 1.35 16.19-.94 1.93-2.06.35-1.38 1.87-2.37 5.6.87 3.06-3.43 7.46-4.69 5.72-.72 3.53-1.75 1.22-7.03 4.31-3.41 7.69-2.9 1.66-7.63 9.12-1.78-4.91-1.31-.12-3.44 2.66-1.46 3.21 3.81 13.22.94 9.84 8.84 11.84-2.41 3.16-2.53.06-.84-3.31-1.25-.94-1.06 1.28-4.63-2.62-1.25-2.47-4.5-.72-1.94-1.78-4.4 3.44-2.03-.38-.25-2.59-3.69-5.19-3.53-.84-4.91.59-6.34-1.46-1.47-1.57-5.37-.12-6.34 1.44-.66 1.43-10.81 1.57-6.22-2.85-3.78-5.93-3.53-.1-2.06.78-.47 2.1-.91-1.19-1.87 1.19-.19-3.32-3.31 1.07 1 1.25-1.5 2.4-1.66-2.56-1.75.34.66 1.44-1.94-.44-2.12 1.22 1.47 2.47-2 .1-.41 1.06 1.97 3.84-1.81 3.44 2.03 4.37.34 3.84-1.03 2.82 5.75-.07-.56.97-2.57.88-5.06-1.16-2.37 2.44-4.6 2-2.68-.78-8.22 2.56-2.37 1.97-.35 12.28 2.56 3.97.6 2.37-4 1.66-9.25-4.57-12.66-3.78-24.71-5.4-16.03-7.47-11.81-2.19-15.46-5.81-1.63.72-11.9-7.25-5.53-12.84-8.97-6.97 1.12-2.62-4.87-5.91 2.12-5.31 5.81-3.69-.09-5.59 1.19-.87 3.19.96 7.71-7 5.19-1.28 4.84.94 6.94-5.31 1.66.31 3.93 5.5.91-.28 4.97-5.44 6.87-3.78 12.56-11.18 4.28-2.25 7.22 1.81 2.66-7.22 7.37-7.81-.19-4.87-1.9-2.13-10.5.22 1.97-8.09-5.97-13.13 2.9-2.31 1.03-2.53-1.9-6.9-2.06-2-10.03-2.94-7.1-.88-1.4 1.75-1.56-.15-1.57-2.63 2.78-4.71.07-7.35 1.12-.84 2.91.62.93-3.59 7.72 1.41 3.28 4.06 1.38-.13.72-2.53 9.28-2.28.87-4.47 2.94-1.03 3.15-3.28 3.32.25 6.43-5.12 3.34-1.06 5.25.4 4.16-1.44 5.34.54 6.69-3.25z"/><path id="MX-MOR" class="fil0 str0" d="m1529.93 1237.39 4.16-.75 4.15 3.66 4.06-3.41 1.97-.37 2.85 2.5 7.34-2.35 2.97.07 3.06 2.59 2.9 4.97 7.97 2.93 8.19-6.43 2.78-.57-8.62 22.13 3.96 24.49-1.72 2.25-8.62-8.25-1.59.38-2.5 3.94-3.63 2-1.9 3.09-8.66 5.93-7.18-7.31-17.22-2.15-6.31-8.38-3.53-1.4-3.35.72-1.37-1.13 2.03-3.5-1.56-2.59.75-3.16 4.87-5.75 1.38-4.46z"/><path id="MX-NAY" class="fil0 str0" d="m981.325 1049.11.5 2.53-2.469 1.157-1.437-2.22 1.312-1.436 2.094-.031zm-16.186-13.591 4.875 1.374 1.25 1.75-1.594 1.187-.468 2.375-7.156-2.718-1.25-1.656 4.343-2.312zm-16.934-16.56 8.186 2.187 1.25 1.374-.188 1.844 2.405 2.437-.656 2.719-1.876 1.156-7.405-3.968-1.688-4.312-.028-3.438zm-1.375-6.563 1.126 3.125-1.594.719-.75-2.593 1.218-1.25zm77.238-66.865 1.812 4.499-.531 4.218 1.718 1.5-.656 2.094 2.937 19.84-1.876.094-.562-1.25-2.343-12.998-6.124-14.03.875-.78 3.437 5.53 2.374-.78-2.312-6.78 1.25-1.157zm22.498-39.963 6.874 8.249 5.249-1.094 2.844-4.093 1.687.093 4.75 5.468 4.156 1.875 6.53.5 1.813 7.717 1.625 1.156 3.593-.093.376 3.875-1.843 2.78-5.312 2.72-5.28 5.499 6.874 14.31 2.156.094 2.531-2.656 4.218-7.999 4.344 5.5 5.312 1.344 7.78 7.468 3 6.468 5.655 3.5 1.5-.126 1.249-4.312 9.186-4.062.657 8.655 1.312 3 2.28 1.343.562 1.5-3.905 15.28 1.437 9.435 5.187-1.625 3.75 3.593 3.468.281 1.655 1.5.344 8.5 2.656 5.06 14.06 1.876 5.437 13.405 4.344 3.874.75 4.593-1.25 13.185-1.25 2.594-7.03 4-5.374.874-3.03 3.03-3 1.25-12.623.72-4.687 26.59-2.562.561-1.407 2 1.187 4.78 2.28 2.343-.905 1.093 3.686 4.562-.125 4.562-1.593-1-1.562-4.843-2.125-2.437-7.186-6.624-3.375-1.718-8.311-9.405-9.624-2.469-3.78-4.468-4.687-2.28-3.905.687-9.967 7.592-7.28-1.437-3.657 1.406-13.904 17.56-3.812-5.467-1.47-.25-2.748 2.28-9.375-3.093 2.406-1.969 2.874-6.718 1.126.281 2.718-4.905 3.78-2.5 2.75-3.657.468-2.625 3.188 1.094 3.561-5.062-.875-3.062 1.563-9.842-2.031-8.843 4.343-8.404-.657-3.906-2.312-2.625-2.906.969-14.561-9.905-4.469-11.155-9.28-15.81-2.28-8.312.562-10.03 2.5-1.186 1.438 3.719 1.875.313.968 2.5 6.187 3.03.938-4.75-3.188-2.219-.78.78-1.094-2.342-3.187 1.063-.594-1.781 1.187-1.094-.219-1.906-1.406-.187-1.031 1.312-1.031-.938.406-2.187-1.625-3.03-.656-10.592-.938-1.781.594-2.656-1.813-1.219.78-2.124-1.968-6.593 1.031-.532 6.561 3.875 10.812 1.78 1.125-2.78-.719-6.375-1.25-1.125-.656-4.156-4.093-4.063-1.407-4.062 1.031-3.187 5.28-6.562 1.75-10.654 2.814-1.934z"/><path id="MX-NEL" class="fil0 str0" d="m1490.06 507.53-2.03 1.061-4 5.405-8.69 2.5-1.93 2.157.84 2.468-1.09 3.343 1.87 1.407 12.5.592.16 2.751-3.66 4.437 3.97 2.718-.69 7.686.75 4.312 3.59 3.53 1.32 9.968-5.13 4.343-2.53 7.468.41 3.499 4.59-.156 3.91 2.062 1.62 2.437-1.47 4.031-.72 10.061 2.5 2.562 2.75-1.156 2.1 1.25 2.62 5.937 5.88.687 3.87 12.935 5.69 7.781 4.4-.406-.19 3.125 3.66 5.061 2.16.281 2.34-2.281 1.97.157.56 1.874-1.12 2.281 2.37 4.187-2.78 1.031 2.56 1.437 1.16 2.031 10.25 1.437 2.03 1.844 3.72 7.311 2.96 1.687 8.32-4.78 3.34.469 10.56-2.157 2.16 1.407.43 4.593 2.47 3.156-.94 10.467 1.85 4.749-1.47 2.406-.63 6.468 2.16 4.906-1.28 2.5 3.09 2.593 6.22 1.968 1.25.812.09 1.625-4.81 4.937-1.84 4.28-3.91 1.938-4.25 4.499-2.43.251-3.1 3.529-13.68 2.656-3.1 3.563-2.34 6.343-8.75-.687-1.9-3.657-1.6-.125-4.56 6.155-3.94 1.282-.78 1.249 1.88 6.999 2.09 1.126-1.19 5.217-2.81.281-2.87 2.157-1.47 4.998-3.5 1.407-1.19-4.75-1.19.406-1.12 3.25-3.59 1.468-3.5 5-5.5-.313-4.06 6.656-8.97 3.968-6.22 4.218-2.16 6.562.69.875 5.72-.281 3.94 8.186-2.69 21.153 5.53 6.53 4.37 11.374 4.28 2.405 2.38 7.311-7.03-1.374-1.13.313-1.06 4.718-5.5 3.03-2.22.469-7.96-2.125-7.22 3.844-2.06 8.779-4.63 5.53-1.03 3 1.22 8.875-.66 5.53-9.65-1.188-2.5 2.126 1.72 4.217-1.35 2.406-12.18-2.312-7.31 8.749-4.69-2.25-3.87-4.593-1.75-5.156-.78-12.779-1.6-3.969 3.59-17.496-.34-2.781-3.03-4.562.66-13.654-2.75-7.03-7.75-9.781.4-4.467-5.59-5.344-.9-2.531 3.75-4.905.15-1.031-2.16-.813 1.5-4.905-4.34-1.563-3.28.594-5.37-7.248 1.72-1.313 3.12-10.186-2.03-3.843-.34-4.343-4.32-4.843 1-3.75-.9-2.593.5-1.156 7.53-.188.62-1.219-.28-6.749-2.78-9.154 5.31-10.062 5.59-1.781-.9-2.53 2.94-.969 5.43.532 4.1 4.78 10.65 2.749 6.06.095 1.06-.626.47-3.592 2.35-2.781-1.22-2.969-2.75-.999-1.56-2.5-11.25-1.969 1.59-3.281-10.25-5.874-2.56-2.656-1.75-10.654-1.09-1.125-6.66-.251-2.62-2.062-3.47-.437-2.63-5.562-.75-7.717 3.1-9.061-1.19-2-2.69-.25-4.43-3.594-3.28-9.716-8.44-6.312-14.19-14.936-.06-4.062 7.56-7.56 3.25-8.531 2.72-2.812 10.97-.875 8.15-5.312 10 .125 3.56-6.842 3.28-2.406 2.63-6.999-1.31-16.029-6.41-4.624-1.97-.219-2.18 9.749-1.85.156-8.81-6.468-.78-10.436 5.72-9.311 3.72-3.25 3.71 1.187 6.57-2.874 6.96.375 1.97-1.531-.5-7.156.91-2.468 5.28-8.123 1.72-7.311 3.53-1.969 11.46-.813 17.25 2.875 6-4.063 2.97-.186 3.4-2.469.82-1.906 2.34-.531.75 2.905 2.41.782z"/><path id="MX-OAX" class="fil0 str0" d="m1730.78 1289.45 3.65-6.82.94-3-1.53-2.31.15-2.68 2.04-1.91 3.59 3.62 3.12 1.1-1.81 3.97 1.91 8.56 2 2.81 6.12 4.84 4.06-1.19 4.35 2.53 3.18 5.91 4.31.28-1.68 2.81 2.18 1.1 7.72-2.44 4.47 1.62 3.59-.59 6.35 1.5 1.62 1.38 3.13 11.84-.69 3.9-2.53 3.5-3.1 8.03-2.25 2.13 1.07 2.25-.53 3.68 6.78 13.82 6.12 1.81 3.94-2.03 8.96-.53 9.41-6.57 11.43-2.87 3.79-3.41 1.31.22 4.28 2.63-.56 2.12-4.66 2.06-.72 3.53 10.5 13.78 10.78 8.72-.03 3.09 2 1.79-1.03 4.28 89.27 5.46-1.07 2.94.1 6.25-2.38 3.19-2.5 10.9-9.18 8.19-6.85 19.65-.25 2.66 3.88 9.15-1.63 4.56.38 6.6.12 1.37-6.18 2.78-1.53-.28-1.63-1.34-2.25.22-2.47-2.72-2.72.06-2.78-4.72-3.5 1.22.07 3.09-2.07.16-.06 1.97 3.5 3 13.66 1 9.59 7.15-.56 2-14.72-6.46-9.25-2.85-24.03-3.5-.75-1.4 8.25-2.82 2.28-2.03 1.25-3.53-7.43-2.62-4.03 2.81-1.22 2.41-3 .15-.85 1.91-1.59-.47-.31-1.22 3.43-2.94-3.43-2.9.75-1.91-4.35-3.28-5.21 1.38-4.07 6.96-3.9-.09-2.88 2.56.66 2.69-1.91.19-1.37 2.5 20.06-.04 5.75.75.37.91-11.37.19-12.47 2.09-5.78-.5-.5 1.91-6.31.53-1.5 1.44h-1.97l-.5 3.12-6.31 2.78-1.06 1.63.66 2.43-4.29 1.44-.56 1.69-4.84-.56-.34 1.81h-6.16l-.34 1.47-6.35 2.78-7.62 1.06-4 2.66-12.03 3.15-8.53 3.94.03.81-4.56 1.25.56 1.03-9.21 4.47-13.91-.84-5.84 3.03-4.91-.1-11.06-4.65-12.53-1.88-4.84-2.97-7.59-2.37-2.41-1.69-.84-2.4-11.75-5.31-10.19-1.91-6.31.41-8.25-2.29-2.31.57-8.03-1.25-1.37 1.22-7.6-1.16-17.75-11.69-16.99-9.06-14.59-2.62-11.94-4.31 14.5-11.1 1.44-6.28 12.84-11.21.59-4.22 2.91-2.09 3.81-.72 2.81-2.85 2.88-9-1.13-4.84-1.31-1.69-3.63-.81-.84-1.84.34-5.97-1.4-3.65-7.16-2.44-1.75-1.6.57-6.46 2.87-2.6-1.91-14.31-8.53-18.93.53-4.44 5.44-12.34 3.75-4.37 6.47-4.22 4.9-1.13 10.82-.03 4.53-1.84 6.84 5.03 3.69 1.12 2.25-.65 5.53-5.13-.22-1.34-7.34-5.13-1.38-2.37 6.34-13.53 4.88-2.12 4.97-.63 1.49 1.06.72 3.03-.31 1.44-4.15 2.81.31 1.25 4.09 3 2.31 3.38 4.5 8.81 1.13 5.12 2.56 2.19 2.72-2.66 2.84-5.93 8.12-8.06 4.25-.91 11.63 2.78 5.56-4.62.34-2.78.91 1.75 4.25-2.82 7.47-1.59 6-10.78z"/><path id="MX-PUE" class="fil0 str0" d="m1629.95 1108.5 2.18-7.99 3-2.35.28-2.59 2.76-2.94.84-3.19 3.69 1.22 6.34-1-.03 5.6-3.85 2.34.5.94 2.72-.6 2.53 1.88-1.15 2.62.5 2.63 2.53 2.62 6.96 3.81 1.5 3.5-4.68 7.72-5.03-2.87-3.66 2.37.19 12.53 1.44 7.41 2.12 1.71 6.38-.68 2.68 5.56 1.85.62 5.03-4.37 3.81-6.09 2.56-2.07 22.06 7.75.25 1.6-6.75 9.34-5.15 13.37-.63 2.53 1 3.06-1.06 3.04-2.1 2.71-3.03 8.22-1.78.75-.78 2.19 4.31 9.34-1.72 4.31 1.07 1.32 4.47 3.09 11.34 2.56 9.15 3.97 1.47 1.84.35 4-.51 2.19-1.65.37-15.06-.68-.6 2.81 1.63 19.12-.22 1.72-5.81 7.53v9.34l1.12 3.47 2.66 2.28 11.9 3.47-.53 2.34 5.81 9.78 4.47.31 2.97-3.28 4.34-2.5 8.07 2.6 5.78 6.75-2.53 2.62-6 10.78-7.47 1.59-4.25 2.82-.91-1.75-.34 2.78-5.56 4.62-11.63-2.78-4.25.91-8.12 8.06-2.84 5.93-2.72 2.66-2.56-2.19-1.13-5.12-4.5-8.81-2.31-3.38-4.09-3-.31-1.25 4.15-2.81.31-1.44-.72-3.03-1.49-1.06-4.97.63-4.88 2.12-6.34 13.53 1.38 2.37 7.34 5.13.22 1.34-5.53 5.13-2.25.65-3.69-1.12-6.84-5.03-4.53 1.84-10.82.03-4.9 1.13-6.47 4.22-3.75 4.37-5.03-2.5-5-6.19-4.84.44-2.69 2.69-1.47-.85-4.37.97-.41-3.37-13.12-5.56 2.59-3.04-.68-2.49-9.32.62-3.81-7.03-4.22-1.94-4.21-3.68.15-3.82 8.66-5.93 1.9-3.09 3.63-2 2.5-3.94 1.59-.38 8.62 8.25 1.72-2.25-3.96-24.49 8.62-22.13-.38-13.74-3.25-11.35.13-3.4 1.72-1.91-1.19-5.71 2.19-.91 3.62 1.15 9.47 7.22 4.12 4.31 1.69 4.32 3.69 4.09 12.68 7 2.69-.44 9.59-8.37 1.78-.13 4.57 3.1 2.4-.16 3.88-2.63 4.37-7.28 2.63 1 8.37-1.59 2.56-1.72.88-3.59-2.94-.63-2.09-1.87-.97-3.66-3.78-3.87-1.85-1.19-4.78 1.56-2.62-.53.4-5.4-12.81-10.66-2.22-3.31-1.53-.22-4.84 5.72-1.9.75-6.44-1.19-2.19-14.78 4.81-9.62 2.53-15-1.43-6.84-6.63 1.5-2.18-4.41 11.31-5.78 2.84-4.31 8.94-7.87z"/><path id="MX-QUE" class="fil0 str0" d="m1543.55 1052.67-4 9.78-12.84 4.03-3.78-2.22-5.15 4.47.84 3.47-2.59 4.87-1.47 6.91-2.53 3.75-3.63 1.31-3.59 8 1.97 6.31-7.25 5.03-9.16 2.25-2.84 2.12-4.94 1.53-3.15 20.44-3.44 2.47-.94 1.97.66 2.25-2.06.37-2.75-1.87-.75.96 1.69 3 .9 5.41-6 6.28-7.97.97-10.27-9.5.56-2.34-3.81-6-4.85-3.1-2.25-5.21-6.31-4.41-3.41-5.81.04-8.47-2.03-5.44-3-2.21-.44-2.38 2.03-11.87 2.25-4.41 14.31-.87 4.69-2.22 8.5 1.19 2.06-1.25.68-3.44 2.57 1.5 2.09-5-.31-4.53 7.03-10.44 4.75-1.75 5.4 5.47 3.44-.53 1.75-3.22 4.53-2.09 2.22-4.5.12-3.66-7.75-1.9 3.6-5.97.34-6.44-1.56-1.53-1.84-1.78 4.81-1.19-.88-1.4.57-1.5 3.43.12 4.72 3.13 1.84 5.9 1.97 2.07 7.78.78 6.06-1.57 1.82 1.13 3.31-8.66 1.75-1.15 2.5.75 1.5-.88 3.09 6.88 10.06 10.46 2.56 4.57z"/><path id="MX-ROO" class="fil0 str0" d="m2506.66 1111.03-3.375 8.061-3.562 4.625-1.093.155-7.999 10.468-4.905 3.03-2.094-5.342.375-5.968 7.156-11.718 2.187-1.125 2.25 2.375 1.062-1.031 1.437.875 4.843-1.25 3.718-3.155zm-189.128 218.311-.78-7.687 7.623-8.842 1.781-3.938-.875-14.685-1.469-4.31 1.781-5.219-2.563-1.437 1.593-4.28-.468-2.22-3.093-3.874-.532-3.968 2.5-16.029-.687-7.874 1.281-2.094 3.657-2.062.562-18.278-10.655-14.592-16.56-13.28-4.186-5.655 2.906-6.25 1.03-4.562-.53-2.718 1.75-1.53 11.06-.532 4.344-4.343 7.592-3.281 7.592-.125 3.687-1.282 6-5.562 3.374 2.875.938-1-.843-2.157 5.843-4.999 5.562-3.25 17.217-6.187 1.437-1.469 2.468-7.405 1.593-1.312 3.125.03 2.906 5.25 1.126-.156-.78-6.843 4.686-8.624 3.656-1.75 3.562 3.125 4.812-1.375 4.718.313 9.718-5.718 9.78-8.437 5.374-2.562 2.686-3.656.844-4.937 2.686-3.375 1.5-7.686 3.594-6.406.312-3.03-4.155-10.03 1.469-9.873 2.75-2.687.405-2.375-1.03-16.59 4.155.28-.125 1.282 1.78.875 2.095-1 6.53 1.843 1.031 1.219 2.031-.781 5.094.594 1.374 1.25.906-1.656 8.467-2.719.72-6.124-1.97-.843 2-2.438 1.437-.5 1.375 1.563 4.5 1.219 1.75 2.593 1.062-.5 1.688 1.407.156 2.468 4.936 6.812 3.03 12.655 1.344-.313.687-5.031 2.313-2.094-.219-2.812-2.031-3.343 2.031.687.344 5.375-2 5.093 1.25 3.624-.5 4.281.594 2.5 3.75 2.656-2.157 7.78-2.342.156-.969 2.22-3.968 12.654-3.687 3.562-3.468 4.968.125 1.53-3.593 2.125-1.031 2.53-6 6.75-12.123 9.498-5.405 7.561-3.187 7.718-4.562 5.405-4.406 12.435-.031 5.906 2 6.03 1.311.437.5 3.593-1.813 4.281-2.656 2.593 1.281-2.906 1.375.03 1.75-4.155-.188-1.843-1.936-1.187.218 4.03-3.28 5.593-2.406.875-1.063-1.187-2.874 1.719-5.062 8.499-7.592 1.312-.594 5.936 3.125 2.157.469 1.843 2.187-1.063-.313 2.438 1.125.437-.78 2.219 1.812-.25 2.781-3.938 4.937-1.063 1.875 2.031 2.563-2.437-.843-1.281 5.374-.688 1.687 2.5-2.312 7.812-6.187 5.969-1.469-.094.25-2.468-7.686 4.625-1.937 5.28v3.905l-2.094 2.468 1.126.25-.188 2.313 4.374-.156 6.343-8.718 2.5-1.186 1.407.53-1.063 4.375 1.093-3.499 3.03-.25-6.904 8.218-.875 10.03-6.375 12.935-3.5 14.842-2.811 3-2.563 14.872-1.406 2.812-.125 6.375-4.5 7.31-1.75 10.405-2.28-1.688-2 .188.063-2.124 1.75-1.187-.375-3-1.282.313 1.25-4.624-1.625-.938-.469-1.937-2.53-.75.593-3.216-8.186-2.469-3.25-3.842 2.312-1.438 1.063-6.374 2.907-5.312-1.47-1.656 1.187-3.874-1.281-4.469-2.28-1.937.75-2.843-2.469-.906-7.062 11.186-3.405 1.186.03.781 3.062-1.344-10.124 18.497-7.062.406-.656-.843-3.313 1.312-3.75-.875-2.874 2.563-2.749 9.403-3.312 3.531-1.407 6.343-3.406 4.312-3.593 8.998-4.437 2.438-1.813 4.437-5.061 4.093.344 4.999-2.907-3.25-2.843-1.219-1.969-2.969-3.28.125-3-3.624-5.625 1.219-3.969 3.753zm158.54-301.455-.657 1.688-6.25 3.749-4.561-.093-1.75 1.187-2.844-1.625-1.5-2.375 5.375 1.75 4.374-.313 7.813-3.968z"/><path id="MX-SLP" class="fil0 str0" d="m1401.89 778.584 5.37 7.248 3.28-.594 4.34 1.563-1.5 4.905 2.16.813-.15 1.031-3.75 4.905.9 2.531 5.59 5.344-.4 4.467 7.75 9.781 2.75 7.03-.66 13.654 3.03 4.562.34 2.781-3.59 17.496 1.6 3.969.78 12.779 1.75 5.156 3.87 4.593 4.69 2.25 7.31-8.749 12.18 2.312 2.82 3.312.43 6.437 3.22 2.436 1.5 3.594-1.03 11.343.69 9.31.62 2.157 3.41 2.874 13.12 4.281 10.22.812 6.87 2.281 2.03-1.344-.15-3.218 3.03-1.75 1.94 1.032 2.53 4.03 5.28 1.749 4.31 3.375 2.59 3.655 2.88 7.905 6.75 8.906 5.56-.718 6.25 1.217 7.25-.218 2.21-2.499 5.91 3.718 6.69-1.407 3 .532.9 2.906 1.66.812 7.37-.125 13.84 4.281 2.07 2.28 3.75 11.124-7.91.157-3.34 2.249 1 7.968-.81 2.093-1.29.875-6.78-.813-.84 1.281 1.19 1.187h3.53l-1.81 1.662 1.09.81-.41 3.84 1.85 2.25 1.4-.34.1 1.5 3.71 3.46-5.31 2.47-.9 2.57-3.32-.19.16 2.18h-3.94l-.62 2.69 2.78 10.34 4.16.69.43 10.44-5.25-.07-4.93 5.75-4.16 9.25-2.87-4.09-4.22 7.44-3.38.12-4.18-3.44-3.57-7.49-7.06 2.34-2.75-.81-2.56-4.57-10.06-10.46-3.09-6.88-1.5.88-2.5-.75-1.75 1.15-3.31 8.66-1.82-1.13-6.06 1.57-7.78-.78-1.97-2.07-1.84-5.9-4.72-3.13-3.43-.12-.57 1.5.88 1.4-4.81 1.19 1.84 1.78-8.25 4.16-5.03-.13-2.12-2.62-1.22 1.69-5.66.53-5.31-6.66-1.5.28-.84-2.15-9.85-6.25-12.15-4-3.37 2.28-1.94 5.72.47 3.5-4.75 1.9-8.6.1-8.56-4.47-15.53-11.63-3.34.13-3.84-2.34-14.47-3.32-3.94-2.28-9.09-.97-3.62-2.09 6.03-12.404 1.09-2.999-.81-.562.41-1.718 1.21.093 1.13-5.124-4.31-12.061 10.31-22.809.59-5.155-6.15-8.062-2.22.156-4.56 2.187-13.91 14.405-7.59 2.281-6.5-.156-4.62-6.312-2.88-6.25-3.34-1.811-7.22-1.063-3.47-4.124-13.06-7.905-2.94-3.125-.78-4.718.63-3.937 3.93-12.467-3.21-9.435 1.59-5.282-1.94-2.53 2.72-5.218 2.06-.626 7.25 2.907 9.19-1.813 1.62-4.499 2.66-3.218 7.12-2.624 11.13-6.656 10.87-16.06 14.81-4.968 3.44-4.812 3.68-9.249-3.15-3.687 2.59-10.78 2-1.936 5.84-1.5 4.25-2.75 2.88-5.561.65-4.656 2.1-1.625 4.93.219 3.07-1.562 2.15-5.375 3.72-3.125 1.13-5.561z"/><path id="MX-SIN" class="fil0 str0" d="m1023.1 939.123 1.312.188 1.688 2.937-1.407 2.28-1.593-5.405zM832.128 734.777l3.656 4.218 1.563-.594.843.969.03 2.811 1.844 3.531-.843 8.437-1.5-.03-2.156-6.594-3.376-3.656-.061-9.092zm-15.06-6.405 4.406 2.906 11.217 14.248 2.28 3.561.157 4.312-1.22.5-8.436-16.061-8.81-8.093.406-1.373zm-1.719-7.186 5.563 3.874.656 1.781-5.187-2.5-1.032-3.155zm-67.427-96.237 3.218.376 1.437 1.187-.406 3.155-1.187.875 5.562 4.593-1.093-3.562 2.405-2-.531-1.468-.969.875-1.437-.78-2.874-5.626-.063-2.312-.469-4.875.906-.594.75 5.844 1.219.53 1.562-2.936 2.468 2.844.406 2.437 1.5-.25-.156 2.53 1.063 1.094 9.155-5.312 4-3.656 6.25-1.813.343-7.78 1.469-2.718 12.779-3.062 6.436-12.061 5.811-1.718-.906-7.78 9.749-12.124.968-5.562 15.248-.687 2.125 1.187.375 9.06 1.937.75 3.812-.812 3.28 7.28-1.249 7.063 1.563 2.562-1.563 6.28 1.031 3.406 4.406 2.844.219 5.874 9.718 15.685L862 638.416l11.905 3.53 9.967.969 7.374 2.187 9.029 15.248 1.843 10.092 6.687 8.718.188 2.094 2.28-.5.5 2.28-3.75 2.406-5.405 6.905 1.875 2.25 1.47-.25.218 2.124-4.156 10.03-.25 15.998-1.593 6.155 3.124 1.906 1.5 5.686 2.343 2.031 3.75 7.406-1.031 4.53 3.75 2.968 1.655-1.374 7.186.72 2.812 8.155 4.124.937 3.78 13.967 1.781.625 1.781-1.312.657.78 2.53 12.874 3.063 4.406 1.843 6.092 2.594-.531 2.187 1.53 2.156-1.718 4.156-.594 8.717-6.656 2.094-3.25 12.623 3.687 4.53 3 2.812 4.28 3.375.813.469 3.343 5.437 7.093.25 6.874 3.218 2.937-.78 2.812 2.468 8.093 2.219 3.343 1.968 9.187 3.376 3.78 2.843 6.187 5.375 5.156 1.374 8.78 3.28 9.124-.842 2.906 2.312 5.437 3.812 4.156.406 7.062 1.875 4 6.375.436 2.656-1.875 1.875.218 6.624 6.812-2.593 1.906-1.75 10.654-5.28 6.562-1.031 3.187 1.406 4.062 4.093 4.063.657 4.156 1.25 1.125.719 6.375-1.126 2.78-10.811-1.78-6.561-3.875.719-3.187-4.687-5.093.78-1.844 2.313-1.093-2.157-1.781-1.687 2.187 1.625 5.936 1.687 1.593-1.75 5.25 1.625 5.249-1.156 1.75-11.624-18.153-9.28-8.968-5.562-3.437-13.185-16.154-14.592-14.31 1.375-1.031 3.593 3.968.25-1.031-4.53-3.594-1.687.657-.594 1.75-1.125-1.03.313-2.157-2.187-1.563-2.875-5.156.969-1.28-3.906-6.125-7.967-7.812.25-1.094-4.344-3.686-1.999-3.437-7.998-6.062 1.281-1.562-6.874-10.624-.72-3.812-23.496-21.746 2.874.624.968-1.125-1.406-.938.344-2.5-1.75-.344-.563 1.531-1.687.657-11.936-9.499-4.374-1.062-15.748-12.374-14.498-8.906.719-1.75 1.937 2.157 9.81 5.311 1.407 2.313 3.125.406 1.593 2.53 1.937-.218 2.343 3.469 1.562-.407-1.687-1.843.218-2.187 2.22-.688.124-1.249-.905-3.687-4.625-6.312-4 .093.344 4.344-3.5.75-3.405-4.469-1.875 1.656-3.25-.594-.562-2.906-5.094-4.656-6.561-2.718-.78-1.437-1.813 1.249-3.375-1.562-2.469-3.313.219-3.593-4.344-5 1.937-.874 3.78 3.656 2.157-3.687-1.876-1.407-.531-2.405-.906.093.25-2.656 1.47-1.625-2.22-.905-.124-1.563 1.624-2 .25-2.437-3.217-2.124-.875-5.874-1.593-2.187-4.843-3.187-.063 1.625-2.75-.5-5.905-5.312-.968-2.562-5.128.003.344-3.53-3.906-1.814-1.75 2.626.875 2.03-1.093 1.814-6-6.719L790.04 708l1.625-1.969-1.187-1.53-4.125 1.093-4.75-7.248 2.124-4.156-1.374-1.969-3.719 1.344-1.25-3-3.967-.28-1.282.719.75 1.875-.75 2.219 1.5.843-2.124 3.406-1.563.72-.187-1.844-1.187-.47.656-1.374-2.53-.968-3.72.625.876 2.53-2.53.72-5.719-6.656 3.656-.532 1.312-1.374.156-2.5 2.907 2.718 2.78-1.344.72-3.092 2.124.468 1.437-1.53-1.062-4.093-3.437-.125-3.187 1.999-2.719 5.718-4.905-1.5-.5 1.625-1.968-.344-1.157-3.499-5.374-4.905-1.469 1.406 4.999 3.625.25 2.343-4.999-3.156-8.968-1.625-.562-1.03 6.375.842.218-6.124-1.562-.125-5.03-4.125-3.376.875-1.156-2.156.531-8.312.75-.28-1.093-3.376-1.407-.5-.125-2.093 2.187-6.656 1.094.125.062-2.593 6.687-10.686 2.187-7.53 3.25-3.468.78.343-.656 3.093-2.687.875-1.843 8.468 1.312 1.718.968-.532 1.187-3.062-1.063-1.813.531-.843 1.063 1.593 2.531-5.374.566-5.217z"/><path id="MX-SON" class="fil0 str0" d="m751.107 625.324-3.218-.376.313-1.624h1.5l1.405 2zm-5.248-2.218.313-4.812.687 3.03-1 1.782zm-106.36-89.08 1.969 2.718-.594 1.062 4.186 1.906-.906 1.22-4.687-2.844.032-4.063zm-131.45-165.008 1.5 4.875-.842 3.562 3 3.75 3.249 8.123-1.312 1.156-.313 4.311-4.812 12.374-.156 3.188-2.312 1.968-1.5-1.469-2.406.344-3.78-3.562-4.186-.218-.969-1.75-1.625-.031-.406-1.156-6.343-3.531 5.187-3.812 1.843-2.719-1.218-10.155 2.219-9.342 1.843-2.719 4.187.72 3.092-2.812 6.061-1.095zM323.953 141.051l2.593.406-.156 2-4.562-1.282-.062-1.093h2.187v-.03zm-11.655-5.655 3.125 1.5 2.22 4.499 4.155 2.969 1.654 3.404-.875 2.125-2.5-2.031-2.187.25-3.25-1.688-2.75-2.843-1.218-3.093.5-4.5 1.126-.592zm470.337 44.43 3.281 3.25-2.937 4 1.625 5.97 5.124 8.873.75 4.998-1.562 4 .062 5.656-4.905.218-.126 1.937 8.53 8.28.25 7.561 3.25 2.874-2.093 5.031.343 2.53 3.437 4.593-.188 3.72 6.03 19.215-.875 5.656-2.656 1.655.5 3.093 4.53 4.125v3.469l-3.968 8.03-1.844 15.404 1.063 3.125 1.78.093 2.344 3 2.094 19.434-.031 8.124-2.5 2.969-.5 2.812.781 17.716-.906 1.593-4.311 2.124-.313 8.405-4.656 3.968 1.438 7.936-2.656 4 2.5 8.28-4.625 8.185-.594 3.25 2.594 6.093-1.312 9.061 4.843 5.656 7.03 2.686-1.844 3.719-2.906.313-3.03 3.812-3.594.375-4.374 3.281-1.593.093-5.53-4.093-2.406-.437-4.53 2.656-7.905 1.53-3.25 4.344.594 1.875 4.875 3.376-1.844 8.592 1.219 2.187 5.718 2.312 6.53 9.312 1.187 5.187-2.187 7.654 1.625 2.032 8.811 5.311 1.969 6.531 3.03 4.437 5.093 12.717.126 5.375-3.906 9.81 1.47 10.78-2.281 1.312-.063 1.437 11.061 5.75 6.312-1.938 5.53 1.22-.968 5.561-9.749 12.124.906 7.78-5.811 1.718-6.436 12.06-12.779 3.063-1.47 2.718-.343 7.78-6.25 1.813-3.999 3.656-9.155 5.312-1.062-1.093.155-2.531-1.5.25-.406-2.437-2.468-2.844-1.562 2.937-1.219-.531-.75-5.844-.905.594.468 4.875-1.312.031-.75 1.688-3.937-5.343.376-3.155-4.219-7.655-7.155-7.999-4.53-3.187-2.656-.406 3.28.5.157-1.126-1.25-2.906-1.78.125-1.126-2.343-2 .624-.218-1.78-1.218-.281-2.28 3.312 1.311 2.343-8.342-.218-1.562 2.03-7.936-3.124-3.719-3.25-2.906-3.968.03-3-3.217-8.748-4.219-5.811.594-.469 3.03 4.218.563-2.686-1.969-1.312.78-1.187-.968-5.093-5.405-4.312-.937 1.125-1.312-1.28-3.376 2.999-3.218-2.125-15.56-3.874-9.53-9.468L649.03 541l.968-.72-1.281-2.874.25-4.03-1.968-1.219-1.625 1.156-2.187-1.655-.47-3.968-1.218-.156-1.25-2.343.781-6.436-1.936-3.687.719-1.219-2.531-2.468.344-2.405 4.28-3.063-2.342-.375-.75 2.468.531-4.812 2.156-1.094-2.156-.375-.906-3.469 1.5-1.156-.469-2.343 1.282-2.405 2.686.562.906-1.625-3.093-2.468-2.562-.594-1.688 1.5-1.969-1.656-12.091-2.844-1.031-2.625-5.124 2.718 1.75 2.844-.594 3.28-3.812-1.374-3.03-3.155 1.25-1.75-1.814-.47-.062-2.218-4.187-.844-4.125 2.343-4.655-4.249-3.062-1.03-2.75-4-3.03-.938-2.156-2.625-.594-2.719-3.312-3.874-.25-2.719-2.157-2.812-1.219.25-1.437-4.936-1.25-.005-3.625-3.531-.313-4.281-2.718-2.343-17.03-6.28-.499-3.562-3.624-8.186-12.53-11.436-1.5-3.906 1.781-.218 1.593-1.813 1.656 3.656 2-1.281-.063-2.656-1.969-1.53-1.656 1.186-1.5-2.312-.843.657-4-3.188-3.78-.905-1.374-3.531-3.03-2.406-.844-2.312-5.968-1.719 1.75-2.28-1.312-2.593-.156-4.125-1.063-.594 1.438-3.062-1.47-3.5-1.249-.436-.156-1.937-2.156-.219 1.655-5.655-1.936-5.656-2-1.843-4.125.03-2.562 1.25-5.187-2.718-.656-3.437 3.124-8.748-.937-1.781-3.093-1.688-.5-3.686-3.124-2.594-5.219-8.873-2.906-2.031-2.031-6.062-3.562-5.031-1.031-4.999-3.719-1.78-2 .561-.75-1.03 1.094-7.687-1.936-4.593.406-10.811-1.593-4.406-6.093-5.906-.343-9.53-3.03-6.25-7.53-6.405-7.936-14.561-2.844-10.749 2.28-7.124.189-9.468.937.25 2.094-3.155.25-3.499-1.562-8.592-.968.343-.594-2.468-1.47.093-7.217-4.249-2.094-3.436-2.563 2.28-12.123-2.937-.75-1.093-.968.75-8.061-1.53-.313-1.5-1.75-.844-4.031-.5.72-4.592-1.782-4.968.188-2.594-1.687-2.874-3.72-3.03-13.528-5.78-.406-1.844-1.187.437-.687-1.625-1.187 1.812-2.468-1.718-1.813 2.157-.562 1.936 1.093-.218.657 1.625-2.219 2.969-2.219-.25-1.281 3.718-8.906-.313-9.779-4.469-4.5-4.843-9.091-4.998-1.375-1.844-2.343-.5-7.53-7.28-6.718-.437-4-1.812-3.062-3.657-2.563-.002-11.936-8.624-2.874-.407-3-2.968 1.875-3.063-.75-3.062 1.312-8.342-.905-3.561 1.936-5.719-4.374-6.217 5.656-7.592.156-4.187 1.469-1.5 1.875-6.405 4.186-.03 1.47 1.249 2.655-1.593 292.613 106.92 180.223-.406z"/><path id="MX-TAB" class="fil0 str0" d="m1969.93 1292.85-12.686 4.562-1.218 1.75-5.906.5 19.81-6.812zm87.8-21.465 3.561 11.624 1.97 2.844 4.498 3.125 3.093.156 2.157 3.31 1.655-.405.25-1.311 1.126.498 3.469 4.437-.563 6.155 1.407 1 3.375 8.093 3.812 5.718 10.842 7.28 2.719 4.47 4.093 2.061 4.687-.469 6.905 3.5 4.03-2 5.25-.344.937-2.25-1.063-5.685.938-4.063 8.718-.406 11.404 2.5 5.124 4.843 4.875 2.062 2.405 2.812 2.125-1.312 12.435 4.936-.063 5.124-.656 45.306-32.995.563 1.655-3.218 2.375-.876-3.436-5.592-4.094-1.157-.594-2.593-13.56-3.75 2.343-8.31-3.968-10.311-7.999-3.938-.155-6.28-3.313-4.249-3.78.875-3.719-.562-1.843 1.375-1.75-.938.375-1.843-4.53-1.156-2.219 5.748-6.092.094-5.53-1.5.125 1.374-1.344-.25-.376 1.156 1.281 5.468-1.218 2.437-10.28 3.72-1.781 2.592-18.216 13.342-7.561 7.03-5.969 2.626-2.53-.969-2.062-2.718-.126-2.062-3.78-6.062-1.687-.624-1.375 1.093-3.905.188-1.126-1.031.938-5.843-6.468-6.812-1.187-2.906.437-1.813 4.437-6.624 1.093-5.28-8.717.281-2.406-1.093-4.343-5.28-6.687-2.656-1.687 1.906-5.187.875-2.343 22.122-1.843 3.625-3.75 2.468-4.343 5.843-.188 5.03-7.905 9.905-6.03-2.375-1.187-6.874 1.187-3.124-.531-3.906-3.469-9.623-1.374-1.5-7.843-3.03-1.312-1.813-3.624-.125-4.5-6.343-4.343-1.219-3.312-3 .062-9.435-1.75-4.592-.376-8.843-1.593-1.25 2.687-2.718 2.874 1.593.75-.906-7.092-1.219 5.905-2.78 13.935-4.719.437 3.875 8.312-1.469 1.812-1.281-.905-3.03 2.219-1.282 3.25-.437.719 1.375 2.343.188 4.093-.75 1.875-1.969-.375-3.719 10.248-2.499.78 2.124 2.656-2.718 16.81-.719 2.75 1.282-2.094 1.749.219 2.78 2.5.126 2.5-1.375.218.875 2.094-.002 1.187-1.75-5.718-2.342 3.375-1.437 9.03.875 6.936-.938 9.405-5.093 7.155-8.593 16.498-3.094z"/><path id="MX-TAM" class="fil0 str0" d="m1647.29 801.018-.75 13.935-.875.281 1.625-14.216zm21.154-82.488 1.437.5-8.873 21.777-1.031-4.28.78-2.813 1.813-1.562.437-3.155 5.437-10.467zm-27.184 254.088-6.25 4.374-4.749-5.124-1.312-3.562-3.75-3.28-4.218-.532-4.905-3.75-3.594-1.218-2.25-4.062-7.935.906-1.25 2.187.657 2.156-6.187 1.375-.469-1.876-1.281.562-2.28-1.812-3.469-.688-12.999.781-5.562 3.155-3-.531-6.686 1.375-5.906-3.687-2.218 2.468-7.249.25-6.25-1.218-5.592.687-6.719-8.906-2.874-7.874-2.593-3.656-4.312-3.375-5.28-1.75-2.53-4.03-1.937-1.032-3.03 1.75.155 3.218-2.031 1.344-6.874-2.28-10.186-.813-13.154-4.28-3.406-2.907-.594-2.156-.72-9.312 1.064-11.341-1.5-3.594-3.218-2.437-.469-6.406-2.781-3.312 1.312-2.406-1.687-4.218 2.5-2.125 9.686 1.187.656-5.53-1.219-8.874 1.031-3 4.593-5.53 2.094-8.78 7.218-3.842 7.967 2.124 2.22-.437 5.467-3.03 1.063-4.718 1.125-.313 7.03 1.407-2.374-7.312-4.281-2.437-4.374-11.342-5.5-6.53 2.687-21.153-3.938-8.218-5.748.28-.688-.874 2.157-6.561 6.25-4.219 8.967-3.968 4.093-6.655 5.468.343 3.499-4.999 3.594-1.5 1.125-3.217 1.187-.407 1.219 4.75 3.468-1.406 1.469-5 2.874-2.156 2.844-.28 1.187-5.22-2.094-1.125-1.875-7 .78-1.249 3.938-1.28 4.562-6.156 1.593.125 1.875 3.656 8.748.72 2.343-6.343 3.093-3.562 13.686-2.656 3.093-3.53 2.405-.251 4.281-4.5 3.906-1.968 1.843-4.28 4.812-4.906-.062-1.625-1.25-.844-6.25-1.968-3.092-2.594 1.281-2.5-2.156-4.905.656-6.468 1.47-2.406-1.844-4.75.938-10.435-2.5-3.188-.407-4.592-2.156-1.375-10.592 2.125-3.312-.47-8.312 4.75-3-1.687-3.718-7.311-2.031-1.844-10.248-1.437-1.187-2.062-2.563-1.437 2.812-1.03-2.375-4.187 1.126-2.25-.562-1.875-1.969-.156-2.343 2.312-2.156-.28-3.657-5.062.188-3.093-4.437.375-5.655-7.749-3.905-12.936-5.874-.719-2.656-5.937-2.094-1.249-2.75 1.187-2.5-2.563.72-10.061 1.469-4.03-1.625-2.438-3.937-2.062-4.562.156-.406-3.5 2.53-7.468 5.124-4.343-1.312-9.967-3.593-3.562-.75-4.311.687-7.687-3.968-2.718 3.657-4.437-.156-2.75-12.498-.593-1.875-1.407 1.093-3.343-.843-2.468 1.937-2.157 8.685-2.5 4-5.374 2.031-1.063.562.906 3.938.007.343 2.219 2.187.562.563-1.219H1500l2.187 3.28 1.063-.842 1.125.624 2.219 3.812-1.187 5.375h2.342l1.375 1.656-1.063 9.06-3.093 6.218 3.25.437-.406 2.907.843.875 2.312-.594 1.125 1.718 1.22 6.03-1.094 6.28.968 1.437-1.625 2.062.5 3.812 2.374.5 2.594 3.78-.906 1.219 1.437 2.28 3.313.968 1.312 4.687 2.405.844 3.188 6.498-.188 2.438 2.749 3.28 1.47 7.374 1.311.687.313 7.406 3.812 1.718 2.219 3.656-1.47 3.938 3.031 3.187 2.53-1.312 2.501 1.718 2.718-.656 1.5.406.156 1.875 2.343-.344 2.312 1.813 1.126-.875 6.03-.03 1.03 2.78 4.031.813 4.75 6.343 7.436-.344v1.813l.968-.344.563 1.375 1.562-1.5 2.937 1.437-.156 1.312 4.999-1.093.03 2.062 4.219 3.78 4.125-.376.125 2.375 2.343 2.5 4.655 2.687 2.468.218 1.126 1.375 1.687-1.625 2.187 1.875 5.406-1.593 1.156 2.25 2.094.093.312-1.593 3.938-.531 1.093 1.125 8.186-.843 2.188 1.312 2.312-1.094 1.218.72-.468 1.5 2.593.75 9.03-.032 3.468 5.969 1.406-.406 1.563 3.062 1.218-.843 2.28 4.218 5.937 1.78-.594.969 2 1.344 4.717-.843-.343-5.219 2.187-1.843 1.5 1 .562-1.094 2.906-.125.218-1.593 5.062-.843 4.28-.156 1.094.875-1.03 15.467-3.063 11.873L1670.1 719l-2.469-.78 5.656-9.718-2.22-1.781 1.438-1.906-1.281-1.844-3.5.156.5-1.718-4.812-.5-1.937-2.468-3.125 3.376 2.28-.407 2.157 3.5.688-.595 1.03 3.437-.968.78-.75-1.655-1.968.625-1.187 2.405 1.093.594.969 3.875-2.406.875-.938-4.281-2.593 1.906-1.125-1.843-.031-3.5-5.593-.75.188 1.375-2.719 2.53 1.593 2.532-.968 2.937-1.625.25-2.78-1.875-.658 1.75 1.75.28 2.032 2.782.968-.657 1.813 1-.594 2.438 2.781 2.062-2.406 3.312.188 4.093-4.186 9.124 1.25 1.407 2.311-.093 1.25 2.312 2.687.625-4.718 3.53-.72 3.093-1.312.219-.155 2.156 1.875 1.126.406 2.437-1.687 9.28 1.28.343 1.032 2.594-2.719 13.217-1.593.125-.875-1.688.406-4.468-3.03.875-2.718-2.031.719 2.906-2.156 1.375 1.28 1.75-.937 3.218 2.875 6.905 1.186.562-.687 2.187 1.875-.469.376-5.124 2.375-2.187.75 10.061-2.125 20.029-1.093 1.469-.72-.25.813-1.75-1.843-.25-.156 1.562 2.78 1.343.126 22.06 2.75 1.437.124 1.282-1.374 1-1.094 6.468.562 2.062 1.094.28.313-6.186-.78.125-.251-2.219 1.655-.968-2.937 30.089.938 34.401-.656 11.218-1.47 2.031-1.186 6-3.906 4.717-3.062 6.499-.531 3.78 3.062 2.28.156 8.811-1.219-.093-.03 3.093 1.75 6.092 1.406-.406 3.656 8.53-.502 1.123z"/><path id="MX-TLA" class="fil0 str0" d="m1612.17 1184.99 6.44 1.19 1.9-.75 4.84-5.72 1.53.22 2.22 3.31 12.81 10.66-.4 5.4 2.62.53 4.78-1.56 1.85 1.19 3.78 3.87.97 3.66 2.09 1.87 2.94.63-.88 3.59-2.56 1.72-8.37 1.59-2.63-1-4.37 7.28-3.88 2.63-2.4.16-4.57-3.1-1.78.13-9.59 8.37-2.69.44-12.68-7-3.69-4.09-1.69-4.32-4.12-4.31-9.47-7.22-3.62-1.15-2.19.91-1.65-1.88-2.38.78-3-5.72 15.66-5.34 3.12.72 6.53-.88 4.53-3.78 2.56-4.59z"/><path id="MX-VER" class="fil0 str0" d="m1671.79 1037.01-2.28 6.405-2.563 3.063-.376-4.718 5.219-4.75zm-23.216-32.871 5.28 11.155-1.5-.437-3.03-4.936-.75-5.782zm6.53 3.25 5.937 7.53 16.654 15.31-2.032 9.624-5.342 12.935-1.625 1.407-.562-6.436 5.53-10.717-.406-4.156-5.468-5.156-4.03-6.25-8.843-9.778-4.625-11.5-1.469.376.25-2.5 6.032 9.31zm-85.643-45.181 5.562-3.156 12.999-.78 3.468.687 2.28 1.813 1.282-.563.469 1.876 6.187-1.375-.657-2.156 1.25-2.187 7.935-.906 2.25 4.062 3.594 1.219 4.905 3.75 4.218.53 3.75 3.281 1.312 3.562 4.75 5.124 6.25-4.374 1.968 16.779 5.186 14.185-.375 3.187-1.25.688 1.937 4.218 1.344 10.185 2.593 2.907.25 3.468 5.781 10.186 4.718-1.063 1.625 2.343-1.187 4.062 1.563 5.437 3.093 2.5.218 3.5 1.593.53 2.312 9.062 14.655 31.058 1.999 9.187 2.468 4.249 13.061 12.873 2.22 3.812 18.465 19.934 10.812 13.624 1.999 4.311 8.156 9.03 3.593 10.248.344 6.25 1.999 3.312-.313 3.468 4.75 6.656-.562 5.625 2.093 8.248 5.375 4.125 3.812 1.437.531 2.188 3.093 1.406 3 4.25-.969 2.03.657 2.812 2.375 2.062 7.53 1.063.937 7.874 2.094 5.53 2.687 2.907 10.998 5.28.03 2.25-6.374-4.219-3.03-.25-.188.937 1.469.47v2.03l2.343 1 .968 1.907-.376.75-2.093-1.031-1.063.905.531 1.563 3.656-.406-.218-2.062 2.844-.844 1.968.938.687-3.719 5.625 3.657 8.467 2.312 29.778.75 9.374 7.343 1.813 3.656 6.905 1.906 10.405.938 1.593 1.343 1.78 5.75 2.376 2.405.406 2.092 8.748 8.718 1.75 7.468 8.342 4 11.843-1.219 22.715-5.624-5.906 2.78 7.093 1.22-.75.905-2.875-1.593-2.686 2.719 1.593 1.249.375 8.843 1.75 4.592-.062 9.436 3.313 3 4.343 1.218 4.5 6.343 3.624.125 1.312 1.813 7.842 3.03 1.375 1.5 3.468 9.623.532 3.906-1.187 3.125 1.187 6.874 6.03 2.375-11.624 9.029-6.093 2.687-2.937 3.53-89.268-5.467 1.031-4.281-1.999-1.78.03-3.094-10.779-8.685-10.498-13.78.719-3.53 4.655-2.062.562-2.125-4.28-2.625-1.313-.188-3.78 3.375-11.436 2.875-9.405 6.593-8.968.5-3.937 2.061-6.124-1.813-6.812-13.841.532-3.656-1.063-2.25 2.28-2.125 3.093-8.06 2.53-3.469.688-3.905-3.125-11.843-1.625-1.374-6.343-1.5-3.593.594-4.469-1.625-7.717 2.468-2.187-1.093 1.655-2.812-4.311-.281-3.187-5.906-4.344-2.53-4.093 1.186-6.124-4.875-2-2.81-1.875-8.562 1.813-3.968-3.125-1.094-3.594-3.593-2.03 1.906-.157 2.686 1.563 2.313-.938 3-3.656 6.81-5.78-6.779-8.062-2.563-4.343 2.5-3 3.281-4.468-.313-5.812-9.78.532-2.342-11.905-3.5-2.656-2.249-1.126-3.499v-9.312l5.812-7.53.218-1.718-1.625-19.122.562-2.812 15.06.687 1.656-.375.5-2.187-.344-4.03-1.469-1.844-9.154-3.968-11.342-2.563-4.5-3.093-1.062-1.312 1.75-4.311-4.312-9.312.75-2.187 1.781-.75 3.062-8.218 2.094-2.719 1.063-3.03-.969-3.062.594-2.53 5.187-13.374 6.718-9.311-.218-1.593-22.06-7.78-2.562 2.094-3.813 6.092-5.03 4.374-1.844-.594-2.686-5.562-6.375.687-2.124-1.718-1.438-7.406-.187-12.53 3.656-2.374 5.03 2.874 4.688-7.75-1.5-3.498-6.937-3.812-2.53-2.594-.5-2.655 1.125-2.594-2.53-1.875-2.719.594-.5-.938 3.843-2.375.03-5.592-6.342 1-3.719-1.219-.843 3.187-2.749 2.937-.25 2.626-3.03 2.343-2.188 7.998-4.53-2.969-2.593 1.126-6.687 7.28-4.998 2.28-5.906 6.968-7.75 3.593-4.155 4.843-1.563.688-2.749-3.375-3.656-8.093.78-6.499 1.813-4.062 1.031-11.436 2.032-1.688.968-2.687 7.468-6.749 1.438-.003 4.187 4.343 4.53-.719.78-1.969-1.75-3.28 1.969-6.905 5.811-7.687-7.905-10.686-6.343-1.937-2.686 2.781-4.125-.187-3.937-2.062-5.718-5.343.937-8.311-.937-2.343-2.656-.532-.407-10.467-4.155-.688-2.781-10.342.656-2.656h3.94l-.156-2.187 3.28.156.906-2.563 5.343-2.468-3.719-3.468-.125-1.5-1.407.375-1.843-2.28.406-3.843-1.093-.812 1.812-1.656-3.56-.001-1.187-1.187.843-1.312 6.812.812 1.281-.843.78-2.094-.968-7.967 3.313-2.22 7.905-.155-3.75-11.123-2.03-2.28-13.874-4.312-7.374.125-1.656-.813-.719-2.97z"/><path id="MX-YUC" class="fil0 str0" d="m2443.23 1036.58 1.04 16.56-.44 2.37-2.75 2.72-1.47 9.87 4.16 10-.32 3.03-3.56 6.41-1.53 7.65-2.69 3.38-.81 4.93-2.69 3.66-5.37 2.56-9.78 8.44-9.72 5.75-4.72-.35-4.78 1.38-3.56-3.13-3.65 1.75-4.69 8.63.78 6.84-1.12.16-2.91-5.25-3.16-.03-1.56 1.31-2.47 7.4-1.43 1.5-17.22 6.19-5.56 3.25-5.88 5 .85 2.16-.94 1-3.37-2.88-6 5.56-3.72 1.28-7.59.1-7.6 3.28-4.34 4.34-11.06.53-1.75 1.53.53 2.72-1 4.53-2.91 6.28-1.37-1.43-2.47-10.75-9.87-11.19-3.69-7.78-12.03-6.56-6.22-13.94-5.68-3.62-1.78-3.25.34-2.84-3.22-5.5-1.31-.88-2.47 2.28-1.25 3.16-1.5.28-2.94-3.06-3.5 1.06-1.37-.56-3.03-6.28-12.91-1.63.51-22.78.21-4.31 1.91-1.84 2.25-5.34-.47-1.63-1.03.66-3.47 10.72-1.75 1.68.94-4.84 3.19-9.25 3.28-4.31 17.49-11.06 7.82-1.78 6.49-4 2.88-.03.81-1.41 3.06-.97 9.07-2.09.18 1.25 1.78-.03-.37-.91 2.03-1.12 12.5-2.29 51.86-6.87 15.72-5.97 1.75-4.37 17.19-3.66 10.09.82 4.15-1.16 7.07-4.59 6.53 1.46-.54 1.41 5.41 1.97 11.22.78 1.56 2.53 3.16 1.78 6.78.28 5.93 1.69 1.31-1.28-11.81-2.91z"/><path id="MX-ZAC" class="fil0 str0" d="m1253.75 736.808.07-5.093 1.96-1.656 16.88-3.343 29.37 1.906 7.93 5.343 7.81 3.031 6.13 5.187 6.75 9.591 4.59-1.28 3.62.999 1.94 11.123 8.84.063 2.88-2.749 7.09-1.593 9.25 1.156 3.91 2.561 6 11.749 4.28 4.062 6.53 2.53 4.5-1.156.56-2.437 2.34-.999 6.63 1.468-1.72 1.313-2.53 1.374-1.13 5.561-3.72 3.125-2.15 5.375-3.07 1.562-4.93-.219-2.1 1.625-.65 4.656-2.88 5.561-4.25 2.75-5.84 1.5-2 1.936-2.59 10.78 3.15 3.687-3.68 9.249-3.44 4.812-14.81 4.968-10.87 16.06-11.13 6.656-7.12 2.624-2.66 3.218-1.62 4.499-9.19 1.813-7.25-2.907-2.06.626-2.72 5.218 1.94 2.53-1.59 5.282 3.21 9.435-3.93 12.467-.63 3.937.78 4.718 2.94 3.125 13.06 7.905 3.47 4.124 7.22 1.063 3.34 1.811 2.88 6.25 4.62 6.312 6.5.156 7.59-2.281 13.91-14.405 4.56-2.187 2.22-.156 6.15 8.062-.59 5.155-10.31 22.809 4.31 12.061-1.13 5.124-1.21-.093-.41 1.718.81.562-1.09 2.999-6.03 12.404-2.53 2.94-3.03-1.97-.88-1.22-6.53-2.34-8.34-7.344-6.66-3.563-11.06-2.843-3.56-6.374-1.84-7.624-13.88-8.217-4.15-4.188-2.41-4.342-2.28.53-1.22 3.937-3.78 2.875-10.84 6.156-5.59 1.187-3.35 2.281-2.9 10.123-10.41 14.342-3.87 8.964.22 3.78 7.31 7.07-.28 6.9 2.03 5.78 8.69 5.56-1.5 8.41-3 4.09-7.16 4.38-11.18 9.09-4.75-1.56-4.28 1.53-1.97 1.68-1.03 6.32-4.6 1.62-.34 1.16-5.34-1.35-4.19.81-.69 1.75-2.75-.21-3.09 1.5-9.06-5.03-7.06.59-2.94-1.53-2.34-5.31-2.35-2.53-7.81-1.94-.53-1.56 12.62-5.66 3.66-3.5.31-3.19-1.06-1.81-2.09-.44-3.19 1.53-2.91-1.68-2.65-7.75 5.59-1.44 5.06-5.87 1.03-7.72-.56-5.59 9.12-6.47 5.53-5.41 10.25-5.246 3.94-.624 2.31-2.155 3.72-9.094 2.19-10.842-1.6-1.187-6.71-.438-1.57-1.374 2.38-4.718-1.28-2.687-6.78-.531-5.88 2.28-.97 5.843 3.88 3.218-7.47 5.906-2.91 5.405-2.81 1.375-2.22-1.625-3.96-.625-2.16 2.5-6.03-.062-1.81-2.062.28-1.407 11.81-19.278.12-3.625-1.87-6.029-4.37-4.125-4.44-1.593-10.72 2.092-1.97 1.782v21.996l-1.18 3.624-3.63-.53-3.78-5.562.13-10.373 5.28-13.186 4.53-5.843 3.43-2.562.53-2.844-5.65-3.155-8.31 1.188-6.75 4.78-.34 2.468 5.43 11.999.5 4.467-3.22 3.688-5.62 3.562-.84-1.532 3.28-10.123-1.66-1.156-9.69 3.656-1.12 9.466-4.22-1.061-3.37 3.78-2.25-1.343-1.35-2.999-.62-8.655 3.62-9.53 3.16-4.718 10.03-4.438.78-1.968.5-17.342-2.66-9.654.25-4 4.28-8.529 1.91-1.156 4.03-18.03.28-5.874 7.25-9.029 8.75-7.562-2.78-13.342 1.41-3.749-1.16-5.905.97-5.249-1.16-5.156-2.44-1.593.72-4.125 7.5-2.25 7.06-6.686 6.47-8.843 7.5-5.686 1.47-4.188 5.34-4.279 12.19.843 6.97 2.187 7.03-2.5 3.5.313 3.12 2.187 8.31 2.718 2.38-2.843 5.24.719 18.97-1.813.38-2.124-1.57-1.157.07-1.281 3.03-1.625-3.19-12.498-3.78-1.405 2.53-15.311-2.5-2.937-4.78-2.219-1.12-3.436-2.35-1.063-.12-5.155z"/></g></g></svg>